<?xml version="1.0" encoding="UTF-8"?>
<svg version="1.1" xmlns="http://www.w3.org/2000/svg" width="2084" height="2084">
<path d="M0 0 C1.29997925 0.05091797 2.5999585 0.10183594 3.93933105 0.15429688 C34.62225541 1.37816687 65.25143742 3.26432747 95.875 5.5 C96.93331779 5.57687735 96.93331779 5.57687735 98.01301575 5.65530777 C113.44025616 6.77718749 128.85429799 8.01915421 144.25 9.515625 C145.45550507 9.63015015 146.66101013 9.74467529 147.90304565 9.8626709 C171.56846722 12.23782621 194.22378058 18.6659556 215.16357422 30.00585938 C216.93418645 30.96437214 218.71884865 31.8967906 220.50390625 32.828125 C241.47653681 44.18531743 260.4414961 61.01829901 274.8125 80 C279.32020864 85.74619021 284.80044493 90.11558417 290.42773438 94.70800781 C327.35175823 125.04992307 348.65992001 169.47738743 353.78160095 216.5823822 C354.14077392 220.55832883 354.23752832 224.52953347 354.31640625 228.51953125 C354.33727798 229.4529686 354.35814972 230.38640594 354.37965393 231.34812927 C354.44684045 234.50282923 354.50569653 237.65759654 354.5625 240.8125 C354.58334656 241.93112427 354.60419312 243.04974854 354.62567139 244.20227051 C356.12114045 327.31112483 354.97787621 410.52276983 350.59481049 523.60931015 C350.50176312 525.77152891 350.4101989 527.93380627 350.31890869 530.09609985 C349.75559702 543.35532169 349.13704991 556.60306455 348.0078125 569.828125 C347.89391174 571.16947258 347.89391174 571.16947258 347.77770996 572.53791809 C343.91669109 614.67991292 324.85184015 651.69056317 296 682 C295.30777344 682.75667969 294.61554687 683.51335938 293.90234375 684.29296875 C283.37836124 695.42527395 270.27687977 704.4683882 257 712 C256.4313623 712.32806641 255.86272461 712.65613281 255.27685547 712.99414062 C182.51903641 754.7296376 70.08995469 757.74192097 -29.0703125 759.203125 C-31.14799522 759.21014381 -33.22567771 759.21723066 -35.30335999 759.22438049 C-41.91057644 759.24379789 -48.5177579 759.24881451 -55.125 759.25 C-56.24934574 759.25044186 -57.37369148 759.25088371 -58.53210831 759.25133896 C-90.51517687 759.25793596 -122.3850373 759.21717428 -154.25744629 756.25323486 C-157.15358876 755.98581832 -160.05072321 755.7320226 -162.94824219 755.47998047 C-212.22640084 751.14833027 -261.44912624 744.2581297 -309.79296875 733.6796875 C-310.65659027 733.4907341 -311.52021179 733.3017807 -312.41000366 733.10710144 C-316.4935294 732.20880738 -320.57217472 731.29329591 -324.64550781 730.34985352 C-325.37755936 730.18401764 -326.1096109 730.01818176 -326.86384583 729.84732056 C-328.82226111 729.40341252 -330.77830126 728.9490617 -332.73413086 728.49389648 C-337.65249326 727.7500939 -340.83014642 728.63937286 -345.01953125 731.1953125 C-345.78152832 731.65583008 -346.54352539 732.11634766 -347.32861328 732.59082031 C-348.1482959 733.09709961 -348.96797852 733.60337891 -349.8125 734.125 C-350.68632324 734.65706055 -351.56014648 735.18912109 -352.46044922 735.73730469 C-361.25562345 741.11084142 -369.98396191 746.59320132 -378.71484375 752.0703125 C-385.18431919 756.12350229 -391.68277187 760.12869694 -398.1875 764.125 C-406.06957013 768.96783439 -413.94798366 773.81620064 -421.8125 778.6875 C-422.65095459 779.20650879 -423.48940918 779.72551758 -424.35327148 780.26025391 C-428.78990525 783.00757879 -433.22287236 785.76067259 -437.65234375 788.51953125 C-438.58908936 789.1019458 -439.52583496 789.68436035 -440.4909668 790.28442383 C-442.26567796 791.38794523 -444.03936422 792.49311755 -445.81176758 793.6003418 C-463.71312468 804.72301368 -463.71312468 804.72301368 -472 803 C-476.36653369 800.95369085 -479.21994218 798.52134686 -481 794 C-481.82811517 783.00628204 -480.62494615 771.93236258 -479.5 761 C-479.35475667 759.53132025 -479.21022279 758.06257016 -479.06640625 756.59375 C-478.71905729 753.06165668 -478.36230986 749.53059399 -478 746 C-478.89924194 746.56714722 -478.89924194 746.56714722 -479.81665039 747.14575195 C-482.56204818 748.87317838 -485.31220588 750.59288089 -488.0625 752.3125 C-489.00544922 752.90740234 -489.94839844 753.50230469 -490.91992188 754.11523438 C-504.95390349 762.8681358 -504.95390349 762.8681358 -512.078125 761.5703125 C-516.49881641 760.25848131 -519.22577865 758.08390989 -521.875 754.375 C-524.29545927 747.11362219 -522.94252509 738.87839481 -522.265625 731.3503418 C-522.14858215 729.9895903 -522.14858215 729.9895903 -522.0291748 728.60134888 C-521.86079146 726.64954926 -521.69049046 724.69791429 -521.51843262 722.74643517 C-521.24536126 719.64656028 -520.97792012 716.5462437 -520.71191406 713.445755 C-520.0503085 705.74601115 -519.38055433 698.04698254 -518.70849609 690.34814453 C-518.13979708 683.83295657 -517.57549869 677.31741932 -517.01745605 670.80130959 C-516.75587388 667.76734697 -516.48789213 664.73399396 -516.21972656 661.7006073 C-514.9768944 647.3942133 -514.62333659 633.87005142 -516.57421875 619.59375 C-516.82585211 617.66535119 -517.0774659 615.73694971 -517.32828617 613.80844498 C-517.59410352 611.77270742 -517.86342306 609.73745726 -518.13342285 607.70227051 C-519.08660765 600.49809656 -519.99689214 593.28843202 -520.90234375 586.078125 C-521.03958548 584.98579182 -521.03958548 584.98579182 -521.17959976 583.8713913 C-526.35472454 542.55472767 -529.41814192 501.01953115 -531.80145264 459.45727539 C-531.92791678 457.25517426 -532.05618033 455.05317521 -532.18682861 452.85131836 C-536.1626617 385.75450634 -536.2295019 317.30945646 -532.19329834 250.21392822 C-531.97769013 246.62905876 -531.76945307 243.04379053 -531.56103516 239.45849609 C-531.08386242 231.3042471 -530.57947006 223.15181494 -530.0625 215 C-529.98318237 213.74329498 -529.90386475 212.48658997 -529.82214355 211.19180298 C-528.95912198 197.73468491 -527.91429813 184.31049547 -526.5078125 170.8984375 C-526.3911171 169.77010498 -526.27442169 168.64177246 -526.15419006 167.47924805 C-521.76843364 127.37447351 -504.46415278 92.29226202 -477 63 C-476.5349707 62.50097168 -476.06994141 62.00194336 -475.59082031 61.48779297 C-453.37042768 37.83218153 -424.24528844 21.43159289 -393 13 C-392.32066406 12.80712402 -391.64132812 12.61424805 -390.94140625 12.41552734 C-335.14374864 -3.17899344 -268.53522982 1.16095582 -210.77740479 -0.8671875 C-208.44008366 -0.94936706 -206.10279581 -1.03250678 -203.76556396 -1.1171875 C-135.93985242 -3.57329156 -67.80697444 -2.66121738 0 0 Z " fill="#675AA6" transform="translate(674,681)"/>
<path d="M0 0 C3.62208411 1.20736137 4.1738527 2.32799697 6.375 5.375 C11.04881821 11.3976959 16.55932608 15.91880739 22.42773438 20.70800781 C59.35175823 51.04992307 80.65992001 95.47738743 85.78160095 142.5823822 C86.14077392 146.55832883 86.23752832 150.52953347 86.31640625 154.51953125 C86.33727798 155.4529686 86.35814972 156.38640594 86.37965393 157.34812927 C86.44684045 160.50282923 86.50569653 163.65759654 86.5625 166.8125 C86.58334656 167.93112427 86.60419312 169.04974854 86.62567139 170.20227051 C88.12114045 253.31112483 86.97787621 336.52276983 82.59481049 449.60931015 C82.50176312 451.77152891 82.4101989 453.93380627 82.31890869 456.09609985 C81.75559702 469.35532169 81.13704991 482.60306455 80.0078125 495.828125 C79.93187866 496.72235672 79.85594482 497.61658844 79.77770996 498.53791809 C75.91669109 540.67991292 56.85184015 577.69056317 28 608 C27.30777344 608.75667969 26.61554687 609.51335938 25.90234375 610.29296875 C15.37836124 621.42527395 2.27687977 630.4683882 -11 638 C-11.5686377 638.32806641 -12.13727539 638.65613281 -12.72314453 638.99414062 C-85.48096359 680.7296376 -197.91004531 683.74192097 -297.0703125 685.203125 C-299.14799522 685.21014381 -301.22567771 685.21723066 -303.30335999 685.22438049 C-309.91057644 685.24379789 -316.5177579 685.24881451 -323.125 685.25 C-324.24934574 685.25044186 -325.37369148 685.25088371 -326.53210831 685.25133896 C-358.51517687 685.25793596 -390.3850373 685.21717428 -422.25744629 682.25323486 C-425.15358876 681.98581832 -428.05072321 681.7320226 -430.94824219 681.47998047 C-480.22640084 677.14833027 -529.44912624 670.2581297 -577.79296875 659.6796875 C-578.65659027 659.4907341 -579.52021179 659.3017807 -580.41000366 659.10710144 C-584.4935294 658.20880738 -588.57217472 657.29329591 -592.64550781 656.34985352 C-593.37755936 656.18401764 -594.1096109 656.01818176 -594.86384583 655.84732056 C-596.82226111 655.40341252 -598.77830126 654.9490617 -600.73413086 654.49389648 C-605.65249326 653.7500939 -608.83014642 654.63937286 -613.01953125 657.1953125 C-613.78152832 657.65583008 -614.54352539 658.11634766 -615.32861328 658.59082031 C-616.1482959 659.09709961 -616.96797852 659.60337891 -617.8125 660.125 C-618.68632324 660.65706055 -619.56014648 661.18912109 -620.46044922 661.73730469 C-629.25562345 667.11084142 -637.98396191 672.59320132 -646.71484375 678.0703125 C-653.18431919 682.12350229 -659.68277187 686.12869694 -666.1875 690.125 C-674.06957013 694.96783439 -681.94798366 699.81620064 -689.8125 704.6875 C-690.65095459 705.20650879 -691.48940918 705.72551758 -692.35327148 706.26025391 C-696.78990525 709.00757879 -701.22287236 711.76067259 -705.65234375 714.51953125 C-706.58908936 715.1019458 -707.52583496 715.68436035 -708.4909668 716.28442383 C-710.26567796 717.38794523 -712.03936422 718.49311755 -713.81176758 719.6003418 C-731.71312468 730.72301368 -731.71312468 730.72301368 -740 729 C-744.36653369 726.95369085 -747.21994218 724.52134686 -749 720 C-749.82811517 709.00628204 -748.62494615 697.93236258 -747.5 687 C-747.35475667 685.53132025 -747.21022279 684.06257016 -747.06640625 682.59375 C-746.71905729 679.06165668 -746.36230986 675.53059399 -746 672 C-746.89924194 672.56714722 -746.89924194 672.56714722 -747.81665039 673.14575195 C-750.56204818 674.87317838 -753.31220588 676.59288089 -756.0625 678.3125 C-757.00544922 678.90740234 -757.94839844 679.50230469 -758.91992188 680.11523438 C-772.95390349 688.8681358 -772.95390349 688.8681358 -780.078125 687.5703125 C-784.49881641 686.25848131 -787.22577865 684.08390989 -789.875 680.375 C-792.29545927 673.11362219 -790.94252509 664.87839481 -790.265625 657.3503418 C-790.18759644 656.44317413 -790.10956787 655.53600647 -790.0291748 654.60134888 C-789.86079146 652.64954926 -789.69049046 650.69791429 -789.51843262 648.74643517 C-789.24536126 645.64656028 -788.97792012 642.5462437 -788.71191406 639.445755 C-788.0503085 631.74601115 -787.38055433 624.04698254 -786.70849609 616.34814453 C-786.13979708 609.83295657 -785.57549869 603.31741932 -785.01745605 596.80130959 C-784.75587388 593.76734697 -784.48789213 590.73399396 -784.21972656 587.7006073 C-783.04034564 574.11891257 -782.44889875 561.07590042 -784.3125 547.51953125 C-784.44567627 546.4994548 -784.57885254 545.47937836 -784.71606445 544.4283905 C-785.13622522 541.22200329 -785.56770047 538.01727085 -786 534.8125 C-786.42978991 531.56816305 -786.85726182 528.32352924 -787.28393555 525.07878113 C-787.54867711 523.07188833 -787.81568977 521.06529354 -788.08520508 519.05903625 C-788.20532959 518.16017197 -788.3254541 517.26130768 -788.44921875 516.33520508 C-788.55580811 515.54390701 -788.66239746 514.75260895 -788.7722168 513.93733215 C-789 512 -789 512 -789 510 C-787.13929943 509.64463489 -785.27856627 509.28944003 -783.41772461 508.93481445 C-781.62272395 508.59216462 -779.8279792 508.2481724 -778.03344727 507.90307617 C-772.63483659 506.86859888 -767.23306356 505.85731566 -761.82279968 504.88586426 C-692.945465 492.50432795 -625.42050506 471.526694 -561.16259766 443.85961914 C-559.97714355 443.35035889 -558.79168945 442.84109863 -557.5703125 442.31640625 C-556.01981201 441.64266968 -556.01981201 441.64266968 -554.43798828 440.95532227 C-552 440 -552 440 -550 440 C-551.54127351 443.71268094 -553.80843234 445.98115698 -556.6875 448.75 C-569.57758223 460.88291685 -569.57758223 460.88291685 -574.25 477.1875 C-574.18787548 484.16874311 -573.00729252 488.68024699 -569.375 494.6875 C-563.65292978 500.25898943 -558.61455073 502.34033154 -550.5625 502.625 C-539.02066223 502.0977661 -533.46605853 497.88802035 -525.8125 489.6875 C-523.85375757 487.53397648 -521.91046071 485.36763654 -519.97314453 483.19482422 C-516.79225709 479.65656907 -513.51710671 476.20842942 -510.25 472.75 C-501.8131535 463.76223799 -493.48666785 454.67923805 -485.25390625 445.50390625 C-482.80549527 442.78392109 -480.34099921 440.07904439 -477.875 437.375 C-474.48575008 433.65203932 -471.14565247 429.89405284 -467.84375 426.09375 C-465.59123543 423.53580973 -463.29682908 421.0182102 -461 418.5 C-456.01424271 413.02764478 -451.11572853 407.49471106 -446.32421875 401.8515625 C-440.7666631 395.31558334 -435.13831395 388.87688713 -429.27270508 382.61450195 C-428.81532959 382.12554443 -428.3579541 381.63658691 -427.88671875 381.1328125 C-427.42072266 380.63749023 -426.95472656 380.14216797 -426.47460938 379.63183594 C-425.41668871 378.4611171 -424.39570215 377.25661772 -423.40039062 376.03222656 C-419.17982616 370.8934107 -414.91184153 367.71465262 -409.125 364.5 C-407.33787651 363.46563104 -405.55281456 362.42769432 -403.76953125 361.38671875 C-402.83061035 360.84063965 -401.89168945 360.29456055 -400.92431641 359.73193359 C-375.78626758 344.84386227 -351.85753519 327.83180473 -328 311 C-326.83653971 314.46889719 -326.98249063 314.9583196 -328.51953125 318.6171875 C-329.26769602 320.04504208 -330.03320114 321.4638967 -330.8125 322.875 C-331.22338867 323.63022949 -331.63427734 324.38545898 -332.05761719 325.16357422 C-342.57369797 344.08217073 -357.22528253 359.51177247 -372.57739258 374.59204102 C-377.06600344 379.00822096 -381.41133216 383.45603088 -385.48291016 388.26196289 C-387.08141095 390.09326756 -388.76433087 391.79888672 -390.5 393.5 C-393.47057406 396.42467115 -396.20729119 399.48619561 -398.92578125 402.64453125 C-401.01419857 405.0161238 -403.15502212 407.3285415 -405.31152344 409.63793945 C-409.50544389 414.1298352 -413.59322936 418.63747146 -417.4375 423.4375 C-422.01914402 429.14577779 -426.98802436 434.44296038 -431.9921875 439.77734375 C-434.8447641 442.82061941 -437.6092621 445.92944134 -440.3359375 449.0859375 C-443.83292933 453.108299 -447.42859365 457.04379566 -451 461 C-452.50028679 462.66640851 -454.00028872 464.33307353 -455.5 466 C-456.25152344 466.83402344 -457.00304687 467.66804688 -457.77734375 468.52734375 C-459.19028025 470.09920456 -460.5995635 471.67436284 -462.00390625 473.25390625 C-466.90110369 478.74582976 -471.90145391 484.13537656 -476.9375 489.5 C-477.63077393 490.23927734 -478.32404785 490.97855469 -479.03833008 491.74023438 C-482.85215175 495.78693024 -486.73610421 499.71510655 -490.75 503.5625 C-496.97044532 509.81436171 -499.18122513 514.07783776 -499.4375 523 C-499.15364326 531.05981116 -498.26257241 536.17805029 -492.3125 541.8125 C-486.46677773 546.48481086 -480.79902312 548.61709953 -473.28125 548.26953125 C-463.84707734 547.15487729 -458.61414827 542.57357067 -452 536 C-450.70835937 534.74703125 -450.70835937 534.74703125 -449.390625 533.46875 C-444.95743499 529.11616345 -440.74823431 524.64934433 -436.7109375 519.9296875 C-434.88200137 517.86691479 -432.96419542 515.9340928 -431 514 C-427.85079119 510.89286078 -424.92023033 507.67509696 -422.0390625 504.3203125 C-419.964585 501.95970018 -417.8353474 499.66081849 -415.69067383 497.36425781 C-411.49583723 492.8717991 -407.40741445 488.3633324 -403.5625 483.5625 C-398.98085598 477.85422221 -394.01197564 472.55703962 -389.0078125 467.22265625 C-386.1577443 464.18205669 -383.39511189 461.07651576 -380.671875 457.921875 C-378.64241927 455.58894926 -376.572353 453.29488755 -374.5 451 C-371.86819555 448.08511071 -369.25713074 445.15726789 -366.6875 442.1875 C-362.11967841 436.94917249 -357.37960962 431.86899352 -352.64892578 426.77832031 C-351.00964679 425.01040379 -349.37740657 423.23620404 -347.74609375 421.4609375 C-341.21982752 414.38572406 -334.53517071 407.51517715 -327.6875 400.75 C-321.3255671 394.44969832 -315.46374449 388.10172239 -310 381 C-309.35417969 380.22140625 -308.70835937 379.4428125 -308.04296875 378.640625 C-294.86761146 362.73664342 -283.07700035 343.82534714 -277 324 C-276.60941406 322.74960938 -276.21882812 321.49921875 -275.81640625 320.2109375 C-273.6245326 312.18493522 -272.88043124 304.67376032 -273.2109375 296.3828125 C-273.23567642 295.61605194 -273.26041534 294.84929138 -273.28590393 294.05929565 C-273.41588702 290.17645783 -273.61650856 286.32041862 -273.93823242 282.44873047 C-274.53088889 272.20999402 -274.53088889 272.20999402 -271.81686401 268.29202271 C-268.78117994 265.04860734 -265.28774094 262.51852934 -261.59671021 260.07110596 C-259.55741369 258.70310402 -257.689442 257.1664119 -255.80859375 255.58984375 C-254.68681417 254.70329642 -253.56322737 253.81902906 -252.4375 252.9375 C-251.86193359 252.47923828 -251.28636719 252.02097656 -250.69335938 251.54882812 C-247.91539435 249.3654563 -245.25271251 247.40765309 -242 246 C-233.08975352 267.12575434 -232.33178314 294.19161066 -236.54125977 316.46875 C-237.90562357 323.99707567 -236.86851852 330.3465816 -233 337 C-228.41176057 342.31479361 -222.77806825 346.43459526 -215.65625 347.27734375 C-208.38859948 347.5577315 -201.56748587 346.21525243 -195.6875 341.75 C-185.75490282 331.58641218 -185.45230669 315.48696308 -185 302 C-184.95915283 300.90171875 -184.95915283 300.90171875 -184.91748047 299.78125 C-184.02799617 272.57086249 -188.32942738 246.74963849 -197.25439453 221.15625 C-198.53640801 217.44873754 -199.766836 213.72399196 -201 210 C-196.91634709 205.82371772 -192.7473233 201.84175622 -188.31640625 198.03515625 C-186.5038701 196.44269194 -184.72846733 194.82902226 -182.96484375 193.18359375 C-182.16856567 192.44254395 -182.16856567 192.44254395 -181.35620117 191.68652344 C-180.30471703 190.70520217 -179.25655909 189.72030178 -178.2121582 188.73144531 C-175.63084067 186.32795851 -173.2780983 184.3502643 -170 183 C-157.90271677 204.30608986 -149.88755455 226.52882085 -145.3125 250.5625 C-144.99007324 252.24907715 -144.99007324 252.24907715 -144.66113281 253.96972656 C-134.17032352 311.4929321 -148.92577 374.37819272 -182.05078125 422.28515625 C-182.69402344 423.18105469 -183.33726562 424.07695313 -184 425 C-184.69480469 425.96808594 -185.38960937 426.93617188 -186.10546875 427.93359375 C-193.78232812 438.38227492 -202.19965268 448.13547188 -211.01953125 457.62548828 C-213.93532626 460.78115104 -216.68906165 464.02247841 -219.375 467.375 C-222.95051077 471.83311433 -226.75890266 475.98254868 -230.6875 480.125 C-238.19998697 488.08795599 -245.57154414 496.0767898 -245.24609375 507.6015625 C-244.476323 515.10377262 -241.61932801 520.95701333 -236 526 C-229.93247857 530.40665463 -223.44519632 531.96774649 -216 531 C-212.5502269 529.90541034 -209.27857293 528.52777038 -206 527 C-205.28328125 526.70867188 -204.5665625 526.41734375 -203.828125 526.1171875 C-201.50381612 524.69677652 -201.20542366 523.44004443 -200 521 C-198.08286317 518.71550761 -196.00315121 516.58746351 -193.9375 514.4375 C-189.96420789 510.23766053 -186.10885427 506.02282853 -182.5 501.5 C-179.01429485 497.14286856 -175.32130303 493.05958669 -171.5 489 C-166.05842082 483.20038113 -160.90946417 477.26240232 -156 471 C-155.51563477 470.38817871 -155.03126953 469.77635742 -154.53222656 469.14599609 C-114.85243558 418.90527612 -91.47264599 356.58009557 -91.625 292.3125 C-91.62531723 291.05931976 -91.62531723 291.05931976 -91.62564087 289.78082275 C-91.74264419 242.95176964 -104.01481127 196.00385629 -127.91577148 155.56616211 C-128.50273804 154.56661499 -128.50273804 154.56661499 -129.1015625 153.546875 C-129.44525879 152.97807617 -129.78895508 152.40927734 -130.14306641 151.82324219 C-131.25478946 149.45790095 -131.78333967 147.62005979 -132 145 C-130.57287598 142.858078 -130.57287598 142.858078 -128.36914062 140.70385742 C-127.55078735 139.88918503 -126.73243408 139.07451263 -125.88928223 138.2351532 C-124.98738159 137.36735733 -124.08548096 136.49956146 -123.15625 135.60546875 C-121.75463256 134.22045184 -120.35301685 132.83543316 -118.95149994 131.45031452 C-116.97905311 129.50867373 -114.99292768 127.58129902 -113.00708008 125.65338135 C-110.04039329 122.76779425 -107.09182737 119.86372643 -104.14284515 116.96006489 C-101.84183358 114.69448745 -99.53678153 112.43350493 -97.22229004 110.1816864 C-92.75748844 105.81978461 -88.46463954 101.40120665 -84.41796875 96.64680481 C-82.55390479 94.4819126 -80.54968401 92.48849941 -78.5 90.5 C-75.19736149 87.23615087 -72.09949352 83.8858581 -69.078125 80.36328125 C-66.28154958 77.18296522 -63.39022816 74.095102 -60.5 71 C-56.48390874 66.69470036 -52.50870566 62.37032109 -48.6640625 57.91015625 C-46.68459874 55.63795489 -44.6541683 53.41540128 -42.625 51.1875 C-38.67628555 46.81714316 -34.9537279 42.29696921 -31.25 37.71875 C-29.06498431 35.07852271 -26.80828609 32.5327028 -24.5 30 C-15.81012653 20.43813231 -7.948611 10.17719353 0 0 Z " fill="#564895" transform="translate(942,755)"/>
<path d="M0 0 C14.37548842 10.50358036 27.10736914 21.85639527 38 36 C38.39687012 36.5151416 38.79374023 37.0302832 39.20263672 37.56103516 C62.31597599 67.88067536 75.56231595 105.3742789 76.31640625 143.51953125 C76.33727798 144.4529686 76.35814972 145.38640594 76.37965393 146.34812927 C76.44684045 149.50282923 76.50569653 152.65759654 76.5625 155.8125 C76.58334656 156.93112427 76.60419312 158.04974854 76.62567139 159.20227051 C78.12114045 242.31112483 76.97787621 325.52276983 72.59481049 438.60931015 C72.50176312 440.77152891 72.4101989 442.93380627 72.31890869 445.09609985 C71.75559702 458.35532169 71.13704991 471.60306455 70.0078125 484.828125 C69.93187866 485.72235672 69.85594482 486.61658844 69.77770996 487.53791809 C65.91669109 529.67991292 46.85184015 566.69056317 18 597 C17.30777344 597.75667969 16.61554687 598.51335938 15.90234375 599.29296875 C5.37836124 610.42527395 -7.72312023 619.4683882 -21 627 C-21.5686377 627.32806641 -22.13727539 627.65613281 -22.72314453 627.99414062 C-95.48096359 669.7296376 -207.91004531 672.74192097 -307.0703125 674.203125 C-309.14799522 674.21014381 -311.22567771 674.21723066 -313.30335999 674.22438049 C-319.91057644 674.24379789 -326.5177579 674.24881451 -333.125 674.25 C-334.24934574 674.25044186 -335.37369148 674.25088371 -336.53210831 674.25133896 C-368.51517687 674.25793596 -400.3850373 674.21717428 -432.25744629 671.25323486 C-435.15358876 670.98581832 -438.05072321 670.7320226 -440.94824219 670.47998047 C-490.22640084 666.14833027 -539.44912624 659.2581297 -587.79296875 648.6796875 C-588.65659027 648.4907341 -589.52021179 648.3017807 -590.41000366 648.10710144 C-594.4935294 647.20880738 -598.57217472 646.29329591 -602.64550781 645.34985352 C-603.37755936 645.18401764 -604.1096109 645.01818176 -604.86384583 644.84732056 C-606.82226111 644.40341252 -608.77830126 643.9490617 -610.73413086 643.49389648 C-615.65249326 642.7500939 -618.83014642 643.63937286 -623.01953125 646.1953125 C-623.78152832 646.65583008 -624.54352539 647.11634766 -625.32861328 647.59082031 C-626.1482959 648.09709961 -626.96797852 648.60337891 -627.8125 649.125 C-628.68632324 649.65706055 -629.56014648 650.18912109 -630.46044922 650.73730469 C-639.25562345 656.11084142 -647.98396191 661.59320132 -656.71484375 667.0703125 C-663.18431919 671.12350229 -669.68277187 675.12869694 -676.1875 679.125 C-684.06957013 683.96783439 -691.94798366 688.81620064 -699.8125 693.6875 C-700.65095459 694.20650879 -701.48940918 694.72551758 -702.35327148 695.26025391 C-706.78990525 698.00757879 -711.22287236 700.76067259 -715.65234375 703.51953125 C-716.58908936 704.1019458 -717.52583496 704.68436035 -718.4909668 705.28442383 C-720.26567796 706.38794523 -722.03936422 707.49311755 -723.81176758 708.6003418 C-741.71312468 719.72301368 -741.71312468 719.72301368 -750 718 C-754.36073179 715.95640982 -757.23208763 713.5223161 -759 709 C-759.1953125 705.69165039 -759.1953125 705.69165039 -759.125 701.78515625 C-759.10201062 700.34262403 -759.07990193 698.90007756 -759.05859375 697.45751953 C-759.04554199 696.71850403 -759.03249023 695.97948853 -759.01904297 695.21807861 C-759.00076922 693.08959657 -759.0375237 690.97082972 -759.09765625 688.84326172 C-759.71655516 664.84016487 -759.71655516 664.84016487 -753.92138672 657.29296875 C-748.42396749 652.55232617 -742.02174112 649.60744751 -735.44628906 646.64111328 C-729.61169789 643.86269717 -724.25945228 640.33643983 -718.8125 636.875 C-716.6298647 635.52887989 -714.44499306 634.18637855 -712.2578125 632.84765625 C-706.56083858 629.34699046 -700.87183452 625.83364582 -695.1875 622.3125 C-693.9341687 621.53616211 -693.9341687 621.53616211 -692.65551758 620.74414062 C-690.10351584 619.16302256 -687.55173365 617.5815507 -685 616 C-681.16694986 613.62454258 -677.33355525 611.24964216 -673.5 608.875 C-672.62110107 608.33012939 -671.74220215 607.78525879 -670.83666992 607.22387695 C-669.60267456 606.45950317 -669.60267456 606.45950317 -668.34375 605.6796875 C-667.62380859 605.23351074 -666.90386719 604.78733398 -666.16210938 604.32763672 C-665.44861328 603.8895166 -664.73511719 603.45139648 -664 603 C-663.27095459 602.41790771 -662.54190918 601.83581543 -661.79077148 601.23608398 C-657.58138101 599.37166757 -654.36889659 600.49597103 -650.00390625 601.54296875 C-648.19681683 601.94077186 -646.38968664 602.3383898 -644.58251953 602.73583984 C-643.19265839 603.05243561 -643.19265839 603.05243561 -641.77471924 603.37542725 C-637.4344656 604.35239246 -633.07500553 605.23030775 -628.71484375 606.11328125 C-626.9534407 606.47415452 -625.19204763 606.83507657 -623.43066406 607.19604492 C-524.11862569 627.43518739 -422.89741801 635.54088959 -54.41821289 579.33837891 C-46.91644673 574.34678533 -39.77003799 568.95133572 -33 563 C-32.05511719 562.17628906 -31.11023438 561.35257813 -30.13671875 560.50390625 C-24.66771329 555.64174578 -19.59422079 550.69523231 -15 545 C-13.88044922 543.63681641 -13.88044922 543.63681641 -12.73828125 542.24609375 C12.42060378 510.68887375 25.58938872 473.94258834 28.01171875 433.84765625 C28.05293854 433.18457584 28.09415833 432.52149544 28.1366272 431.83832169 C29.13985923 415.69372732 29.8587901 399.53751306 30.5 383.375 C30.53114017 382.59101334 30.56228035 381.80702667 30.59436417 380.99928284 C31.09522569 368.33399016 31.55729096 355.66744763 32 343 C32.02799431 342.20611374 32.05598862 341.41222748 32.08483124 340.59428406 C33.9016088 288.99406395 34.18486727 237.4026601 34.18724871 185.77607155 C34.187499 183.38454286 34.18822087 180.99301475 34.1890831 178.60148621 C34.19210409 169.40871869 34.18808489 160.21599304 34.1739502 151.02323532 C34.16964322 148.20381849 34.16719644 145.38441097 34.16653442 142.564991 C34.16124849 128.77779955 34.04926006 115.00471457 33.5637207 101.22509766 C33.5267039 100.14171804 33.4896871 99.05833843 33.45154858 97.94212914 C32.21862347 66.71661631 23.05727416 28.89960566 2.203125 4.62109375 C0 2 0 2 0 0 Z " fill="#000000" transform="translate(952,766)"/>
<path d="M0 0 C1.56041016 0.25692627 1.56041016 0.25692627 3.15234375 0.51904297 C26.90220278 4.53783413 50.21904724 12.4100151 71.85498047 22.95605469 C73.90533383 23.95392755 75.96771926 24.92095407 78.03515625 25.8828125 C102.65253942 37.53093304 124.86387426 53.78988963 145 72 C145.88606934 72.79349854 145.88606934 72.79349854 146.79003906 73.60302734 C152.58791204 78.80139453 158.29626753 83.99467128 163.29296875 89.98828125 C164.52418363 91.43925531 165.80447099 92.84908121 167.11328125 94.23046875 C181.25372864 109.15778228 192.68188045 126.27866536 203 144 C203.41443359 144.70624512 203.82886719 145.41249023 204.25585938 146.14013672 C215.94024037 166.30401196 223.86879199 188.59210369 230 211 C230.20173828 211.70608398 230.40347656 212.41216797 230.61132812 213.13964844 C240.28447451 247.26529554 241.26306283 286.18931214 235 321 C234.66726068 323.04806217 234.33526078 325.09624458 234.00390625 327.14453125 C229.89360082 351.38300054 222.52323356 374.78663353 212 397 C211.56929199 397.91362305 211.13858398 398.82724609 210.69482422 399.76855469 C198.02488299 426.4051086 181.64041323 450.78099734 161.48046875 472.34375 C157.29335955 476.82758347 153.298397 481.46883192 149.328125 486.14453125 C144.17028587 492.20992551 138.96554994 498.21334992 133.5625 504.0625 C133.07885986 504.58610107 132.59521973 505.10970215 132.09692383 505.64916992 C130.74015453 507.10774994 129.37030018 508.55412449 128 510 C126.73929688 511.34964844 126.73929688 511.34964844 125.453125 512.7265625 C120.96586955 516.88513364 115.07143604 519.16760681 108.9375 519.4375 C100.1900361 518.46555957 93.88477423 515.71024029 88 509 C83.80834586 502.50657046 81.97183313 495.70520347 83 488 C85.66071626 479.83614378 91.18113387 474.09209985 97 468 C98.11292079 466.75778773 99.21763627 465.50815637 100.3125 464.25 C100.87195313 463.60933594 101.43140625 462.96867187 102.0078125 462.30859375 C103.57311509 460.49468427 105.12902425 458.67402894 106.6796875 456.84765625 C111.69473261 450.94975079 116.75770947 445.13968456 122.0625 439.5 C167.18269127 391.18727329 187.67211934 329.45152831 186 264 C184.04433044 216.90493311 164.21104166 170.84824689 134 135 C133.32517578 134.19199951 133.32517578 134.19199951 132.63671875 133.36767578 C124.05233801 123.10435778 115.29069188 113.62618312 104.8046875 105.24609375 C102.97789738 103.78313509 101.16933051 102.29703045 99.3828125 100.78515625 C52.42625677 61.14379095 -10.07486919 43.56736447 -70.85644531 48.30029297 C-109.85786954 52.50234046 -147.77312523 65.13680431 -181 86 C-181.58555664 86.36722168 -182.17111328 86.73444336 -182.77441406 87.11279297 C-204.91097445 101.14755684 -225.78099677 118.76038052 -242.92578125 138.640625 C-245.52629146 141.59864415 -248.19732622 144.48691068 -250.875 147.375 C-254.48380268 151.26939942 -258.0772436 155.17466131 -261.625 159.125 C-262.69427734 160.30835938 -262.69427734 160.30835938 -263.78515625 161.515625 C-265.37577467 163.29981074 -266.94353082 165.1044774 -268.49609375 166.921875 C-274.20617549 173.49238002 -279.78742452 179.24687967 -288.9453125 180.203125 C-296.37912593 180.36299196 -302.7916049 179.01790527 -308.75 174.375 C-314.90292997 168.48023492 -317.30747956 163.07305187 -317.625 154.5 C-317.72705497 144.94765497 -312.94529655 138.5679585 -306.5703125 131.91210938 C-305.92835938 131.26048828 -305.28640625 130.60886719 -304.625 129.9375 C-303.34500849 128.61458194 -302.06635868 127.29036438 -300.7890625 125.96484375 C-300.15774414 125.31177246 -299.52642578 124.65870117 -298.87597656 123.98583984 C-296.41465223 121.38037237 -294.07361216 118.6803654 -291.72802734 115.97094727 C-288.8963797 112.7412367 -285.94601216 109.62508988 -283 106.5 C-277.59181516 100.7426625 -277.59181516 100.7426625 -272.375 94.8125 C-265.28452128 86.5911348 -257.3523495 78.92566293 -249 72 C-248.46455566 71.55076172 -247.92911133 71.10152344 -247.37744141 70.63867188 C-217.97501433 46.02268642 -184.23991722 24.78586662 -147.5 13.140625 C-144.97896434 12.31903749 -142.52687567 11.45495343 -140.0546875 10.5078125 C-96.31495259 -6.0650367 -45.66867258 -7.78679443 0 0 Z " fill="#FEFEFE" transform="translate(613,768)"/>
<path d="M0 0 C0.92619141 0.30599121 0.92619141 0.30599121 1.87109375 0.61816406 C32.08843853 10.73478973 56.93673986 31.74428576 71.375 60.25 C82.46604207 82.94385537 83.83221056 110.9461775 76 135 C69.42908383 153.99491733 59.37147925 171.23875414 47 187 C46.24976563 187.96292969 45.49953125 188.92585938 44.7265625 189.91796875 C35.23307726 201.79339342 24.58122044 212.54552186 13.76220703 223.20117188 C9.57743485 227.33974682 5.57050953 231.54631047 1.7355957 236.01049805 C-2.04919508 240.34897886 -6.07260159 244.47290857 -10.0390625 248.64453125 C-13.9362518 252.75990296 -17.73704267 256.93603951 -21.45019531 261.21826172 C-23.39024841 263.44865042 -25.38050303 265.63078013 -27.375 267.8125 C-30.44746773 271.21083552 -33.38442622 274.67590523 -36.25 278.25 C-40.9089159 284.01234335 -45.93327716 289.38492006 -51 294.78515625 C-53.80767877 297.780417 -56.52052442 300.84555799 -59.203125 303.953125 C-62.01749604 307.15906071 -64.91456492 310.28907827 -67.80419922 313.42700195 C-70.81412595 316.69783034 -73.79117751 319.99518537 -76.75 323.3125 C-79.84329416 326.7635595 -83.03384962 330.06284553 -86.33984375 333.30859375 C-88.04013623 335.04089174 -89.61333012 336.84022113 -91.1875 338.6875 C-108.63700439 358.77015033 -108.63700439 358.77015033 -121.0078125 360.23828125 C-129.04474848 360.52001886 -135.9693326 358.24071401 -141.9375 352.75 C-147.97784564 345.98310335 -148.34484508 339.43575509 -148.49609375 330.5625 C-147.19084649 321.18938582 -141.30777476 315.82096732 -134.6875 309.5 C-129.42895785 304.4089794 -124.26506126 299.34775112 -119.5324707 293.7578125 C-117.9293126 291.91891839 -116.24219854 290.20696135 -114.5 288.5 C-111.51106799 285.55735676 -108.75347702 282.47644293 -106.015625 279.30078125 C-103.55519285 276.49226471 -101.03005722 273.7455632 -98.5 271 C-93.3181241 265.36578643 -88.25331408 259.65020721 -83.29296875 253.8203125 C-77.89680775 247.48515254 -72.44453698 241.22808904 -66.79394531 235.11816406 C-64.32204665 232.44521046 -61.8837697 229.75181015 -59.5 227 C-56.13204024 223.11637176 -52.65776967 219.33319156 -49.17651367 215.55151367 C-46.36318641 212.49367384 -43.57671829 209.41497828 -40.8125 206.3125 C-31.35724271 195.79731173 -21.62949859 185.55513787 -11.5625 175.625 C-5.60536499 169.72134017 -0.05280925 163.71165606 5 157 C5.39348633 156.48824219 5.78697266 155.97648437 6.19238281 155.44921875 C19.82685723 137.6383231 31.5955069 117.11470293 29 94 C25.65963784 78.59503568 14.30089637 65.59564413 1.4375 57.0625 C-11.11115519 49.55491146 -23.78212308 47.26682437 -38.2109375 49.49609375 C-40.88297023 50.18956852 -43.41716288 51.02698632 -46 52 C-46.91394531 52.31710937 -47.82789063 52.63421875 -48.76953125 52.9609375 C-62.17216968 58.02056807 -73.72992779 66.12931948 -84 76 C-85.26311775 77.07166093 -86.53326141 78.13513492 -87.8125 79.1875 C-90.07179639 81.0807067 -91.49031543 82.64933665 -93.3125 85.0625 C-97.78575227 89.95186876 -102.66455061 92.54007592 -109.2578125 93.44921875 C-118.3518966 93.75516822 -124.06750031 91.87468327 -130.75 85.8125 C-136.28744781 79.85689251 -138.44739483 73.72597452 -138.43359375 65.65234375 C-137.26211126 58.48624815 -134.23876736 53.40045114 -129.4375 48.0625 C-128.6336084 47.15201904 -128.6336084 47.15201904 -127.81347656 46.22314453 C-123.20082306 41.07531373 -118.37049248 36.36117132 -113 32 C-112.45456543 31.55479004 -111.90913086 31.10958008 -111.34716797 30.65087891 C-81.43716048 6.50567221 -38.84996617 -13.18123852 0 0 Z " fill="#FEFEFE" transform="translate(590,944)"/>
<path d="M0 0 C5.4877138 4.94910485 8.47207445 9.62099646 9.37109375 17.078125 C9.53285631 24.80466605 8.70852588 30.70676445 4 37 C-3.08215345 44.12745507 -12.25109249 46.17947367 -21.75 48.25 C-54.20643535 55.78128042 -85.17305858 70.94049708 -111 92 C-111.51643066 92.4134668 -112.03286133 92.82693359 -112.56494141 93.25292969 C-121.02787296 100.05989967 -128.76326982 107.58007089 -136.4375 115.25 C-136.91017303 115.72167603 -137.38284607 116.19335205 -137.86984253 116.67932129 C-142.92654881 121.73723717 -147.8410805 126.85755151 -152.50024414 132.28417969 C-154.55763087 134.63796675 -156.76089678 136.81982054 -159 139 C-161.95183025 141.91626603 -164.80388859 144.84605835 -167.5 148 C-170.98332542 152.0748335 -174.77818708 155.79292992 -178.58984375 159.55859375 C-181.26854532 162.27202727 -183.74608118 165.10777023 -186.22265625 168.00390625 C-188.95099285 171.06803813 -191.89667908 173.90481832 -194.81640625 176.78515625 C-196.77974671 178.77659461 -198.62079669 180.81302578 -200.4375 182.9375 C-203.15619248 186.1103592 -206.02751675 189.06338382 -209 192 C-211.95183025 194.91626603 -214.80388859 197.84605835 -217.5 201 C-221.72604982 205.93706768 -226.37437835 210.44130856 -231 215 C-231.84949219 215.87785156 -232.69898438 216.75570313 -233.57421875 217.66015625 C-239.61203391 223.48407136 -245.52655214 225.37801847 -253.76171875 225.26953125 C-260.80942627 224.68293074 -266.10907537 222.38967298 -270.9375 217.1875 C-276.41804107 210.1558624 -277.93009668 203.7936413 -277 195 C-275.86537559 189.51288194 -273.81215242 185.92672825 -270.125 181.8125 C-269.40231934 180.98165894 -269.40231934 180.98165894 -268.66503906 180.1340332 C-264.69455546 175.63112641 -260.49120369 171.37538806 -256.20605469 167.17358398 C-252.87994929 163.91102436 -249.78977933 160.53822839 -246.7734375 156.9921875 C-243.80428153 153.65679203 -240.58181657 150.57480673 -237.40625 147.4375 C-235.34550655 145.34999365 -233.40484374 143.22830777 -231.5 141 C-228.01547893 136.92376781 -224.21918019 133.20449127 -220.40625 129.4375 C-218.34550655 127.34999365 -216.40484374 125.22830777 -214.5 123 C-211.01547893 118.92376781 -207.21918019 115.20449127 -203.40625 111.4375 C-201.34550655 109.34999365 -199.40484374 107.22830777 -197.5 105 C-194.08689328 101.00730912 -190.38691847 97.35042061 -186.625 93.6875 C-184.60182472 91.61615388 -182.71187861 89.53229596 -180.828125 87.33984375 C-176.360805 82.19035192 -171.566977 77.38295246 -166.75 72.5625 C-165.87214844 71.67240234 -164.99429688 70.78230469 -164.08984375 69.86523438 C-158.04221466 63.80432352 -151.71942845 58.30154982 -145 53 C-144.2894043 52.43015381 -143.57880859 51.86030762 -142.84667969 51.27319336 C-115.32558015 29.30334087 -35.50134551 -25.05622175 0 0 Z " fill="#00B6DF" transform="translate(565,855)"/>
<path d="M0 0 C5.94445001 3.13273623 9.61968536 8.0797948 13 13.75 C14.97505766 20.72079173 15.25009828 27.67385885 12.375 34.4375 C9.10134598 40.26254053 4.22852507 44.67968996 -0.5859375 49.2265625 C-3.63291488 52.13069887 -6.37556138 55.23244517 -9.12060547 58.42041016 C-12.24881956 62.00091642 -15.53884259 65.42794554 -18.8125 68.875 C-23.87334971 74.22745463 -28.89236429 79.60517273 -33.79296875 85.10546875 C-36.35749432 87.96895541 -38.95910202 90.79689875 -41.5625 93.625 C-45.14097334 97.51655918 -48.66581925 101.44681429 -52.12890625 105.44140625 C-54.3676125 107.9895665 -56.65160212 110.49410593 -58.9375 113 C-63.92325729 118.47235522 -68.82177147 124.00528894 -73.61328125 129.6484375 C-79.21042128 136.23096998 -84.89478228 142.69804672 -90.78344727 149.02172852 C-93.97772697 152.45234799 -97.09784384 155.93171458 -100.1640625 159.4765625 C-103.2365734 162.98220269 -106.39738651 166.40798371 -109.5390625 169.8515625 C-111.48987143 172.00571307 -113.41143612 174.17718469 -115.3125 176.375 C-118.92000093 180.52702938 -122.65970879 184.55253066 -126.3984375 188.5859375 C-129.39816196 191.824446 -132.37149702 195.08283248 -135.3125 198.375 C-139.66158565 203.22741563 -144.09714395 207.99620461 -148.56494141 212.73925781 C-151.4819322 215.84076889 -154.36101424 218.96034276 -157.15234375 222.17578125 C-163.70872755 229.68430231 -169.27008058 235.5898214 -179.54296875 236.9921875 C-186.96415702 237.36436344 -192.6886483 236.73679844 -198.84375 232.41796875 C-204.30296283 227.41708536 -207.58074744 221.92139233 -208.17578125 214.546875 C-208.35747703 206.47575699 -207.84920955 200.85710222 -202.359375 194.7421875 C-201.18935534 193.56689748 -199.99843708 192.41209735 -198.7890625 191.27734375 C-196.89626621 189.46041904 -195.20314706 187.55728183 -193.5 185.5625 C-190.53144444 182.11578784 -187.39670896 178.90889141 -184.125 175.75 C-182.22723453 173.79801266 -180.44018548 171.80483681 -178.65625 169.75 C-174.41908351 164.87138613 -169.98599786 160.190373 -165.54296875 155.5 C-161.79845724 151.53066275 -158.15349923 147.49556604 -154.57617188 143.375 C-152.24309274 140.7054458 -149.84348099 138.1041206 -147.4375 135.5 C-143.79484744 131.54501384 -140.20248426 127.55435984 -136.6796875 123.4921875 C-134.62249601 121.13979365 -132.53153085 118.81965034 -130.4375 116.5 C-127.74766569 113.51937279 -125.07439636 110.52754767 -122.4375 107.5 C-119.04496907 103.60487189 -115.58555799 99.77217237 -112.125 95.9375 C-110.21195851 93.80582519 -108.31862388 91.6598089 -106.4375 89.5 C-103.04496907 85.60487189 -99.58555799 81.77217237 -96.125 77.9375 C-94.21195851 75.80582519 -92.31862388 73.6598089 -90.4375 71.5 C-86.32666189 66.78295535 -82.12932811 62.14499871 -77.9375 57.5 C-77.215625 56.695625 -76.49375 55.89125 -75.75 55.0625 C-69.85923864 48.49850877 -63.90953481 41.98993484 -57.9375 35.5 C-57.22787109 34.72849609 -57.22787109 34.72849609 -56.50390625 33.94140625 C-53.53018037 30.70979628 -50.54999443 27.48426008 -47.56591797 24.26220703 C-45.82225669 22.37528842 -44.08505693 20.48252724 -42.34765625 18.58984375 C-18.57264636 -7.22447173 -18.57264636 -7.22447173 0 0 Z " fill="#FE8B09" transform="translate(574.9375,1021.5)"/>
<path d="M0 0 C1.35629517 0.60799438 1.35629517 0.60799438 2.73999023 1.22827148 C11.04787779 5.02203825 19.02774163 9.29233053 26.8125 14.0625 C27.83214844 14.68511719 28.85179687 15.30773437 29.90234375 15.94921875 C61.75359788 36.34257207 87.09108969 65.76632734 102.8125 100.0625 C103.14878418 100.78099121 103.48506836 101.49948242 103.83154297 102.23974609 C112.51010279 120.94613925 117.27239575 140.64552661 119.8125 161.0625 C119.94398438 162.08730469 120.07546875 163.11210938 120.2109375 164.16796875 C122.20038714 183.22904705 124.47410774 214.1452388 113 230.5625 C107.94320831 236.56588324 102.26870243 239.37242381 94.49609375 240.35546875 C86.69235855 240.80732822 80.59083403 238.39339974 74.734375 233.23046875 C69.67442925 227.84098872 67.11325935 222.67161216 66.5 215.3125 C66.62133332 212.02698395 67.19158117 208.90612489 67.8046875 205.6796875 C73.94772828 169.24700658 64.48336502 129.5888702 43.3046875 99.484375 C24.99387513 74.12228132 1.8447272 57.21337614 -26.6953125 44.98828125 C-33.16868762 42.07157041 -36.49715612 37.8797398 -40.0625 31.9375 C-42.70298792 24.85908359 -42.27107673 16.53457703 -39.25 9.6875 C-35.73129297 3.54975535 -30.5596379 -0.25143105 -24.3125 -3.375 C-15.30762212 -4.99587802 -8.22605824 -3.83089669 0 0 Z " fill="#00B6DF" transform="translate(637.1875,862.9375)"/>
<path d="M0 0 C5.81928009 4.10714496 9.47044083 8.70979824 11.296875 15.62109375 C11.59765625 18.8046875 11.59765625 18.8046875 11.609375 22.05859375 C11.62613281 23.12980469 11.64289063 24.20101563 11.66015625 25.3046875 C10.94686074 31.8163852 7.91369376 36.51245741 3.921875 41.55859375 C3.27593384 42.3794043 3.27593384 42.3794043 2.61694336 43.21679688 C1.1866672 45.02623426 -0.25673313 46.82451784 -1.703125 48.62109375 C-2.21762207 49.26320801 -2.73211914 49.90532227 -3.26220703 50.56689453 C-10.14713509 59.14838309 -17.15638927 67.62030513 -24.30419922 75.98388672 C-25.78458334 77.71642701 -27.26143858 79.45194036 -28.73828125 81.1875 C-33.97822985 87.33442643 -39.27067867 93.42026738 -44.69921875 99.40234375 C-46.51624482 101.41417768 -48.30256892 103.44769809 -50.078125 105.49609375 C-54.36375832 110.41225703 -58.7873463 115.20132956 -63.20751953 119.99609375 C-64.72901937 121.64922841 -66.24572964 123.30665535 -67.76171875 124.96484375 C-72.87854066 130.55023314 -78.02771719 136.05707621 -83.47265625 141.328125 C-85.31502472 143.2221185 -87.02915279 145.14645501 -88.74755859 147.15014648 C-95.67589681 155.08774824 -103.21018182 162.47116259 -110.6262207 169.94921875 C-112.55544853 171.8963015 -114.47577706 173.85156197 -116.38891602 175.81445312 C-119.17055327 178.6682656 -121.97674436 181.49674726 -124.78515625 184.32421875 C-125.63028275 185.1971759 -126.47540924 186.07013306 -127.34614563 186.96954346 C-133.93875922 193.53978305 -140.29649526 197.45259702 -149.703125 198.18359375 C-156.7449381 197.87308861 -162.42035837 194.61244336 -167.640625 190.05859375 C-168.32125 189.25421875 -169.001875 188.44984375 -169.703125 187.62109375 C-170.5384375 186.66203125 -170.5384375 186.66203125 -171.390625 185.68359375 C-175.21860287 179.66819996 -175.84681256 172.56319725 -174.703125 165.62109375 C-171.5128151 156.87931064 -165.74395744 151.01264119 -159.1796875 144.64453125 C-158.14867616 143.62542474 -157.11886227 142.60510554 -156.09017944 141.58364868 C-153.39771726 138.91574447 -150.69102844 136.26277971 -147.98040771 133.61334229 C-144.17025989 129.88398293 -140.37982954 126.13457011 -136.5874939 122.38711548 C-134.57481693 120.39831161 -132.55675068 118.41525409 -130.53384399 116.43685913 C-125.87762815 111.86232149 -121.35693817 107.25725066 -117.13278198 102.27835083 C-114.95214897 99.75056302 -112.59173576 97.4535019 -110.203125 95.12109375 C-106.54011546 91.50701517 -103.0414685 87.81847747 -99.703125 83.90234375 C-97.53390827 81.42808091 -95.29413186 79.03165098 -93.04174805 76.63330078 C-87.75739832 71.00639811 -82.70725707 65.29444331 -77.87890625 59.265625 C-75.572808 56.46270127 -73.16160969 53.791061 -70.703125 51.12109375 C-66.28801146 46.31322472 -62.13658018 41.3470005 -58.04003906 36.26708984 C-56.50914846 34.38227165 -54.96276661 32.51083336 -53.4140625 30.640625 C-52.82939209 29.93413818 -52.24472168 29.22765137 -51.64233398 28.49975586 C-50.43174696 27.03763521 -49.22031924 25.57621023 -48.00805664 24.11547852 C-45.16079514 20.66871264 -42.35928566 17.20512847 -39.67578125 13.62890625 C-29.54712629 0.14964124 -16.86211579 -9.4782275 0 0 Z " fill="#00B6DF" transform="translate(713.703125,1127.37890625)"/>
<path d="M0 0 C4.55318701 -0.07468636 9.10600998 -0.12885256 13.65966797 -0.16479492 C15.20562968 -0.1797933 16.75154948 -0.20019887 18.29736328 -0.22631836 C34.80809658 -0.49812191 34.80809658 -0.49812191 41 3 C44.3360779 6.60803424 46.03238359 10.06523031 47.69921875 14.6640625 C47.94693527 15.34506012 48.19465179 16.02605774 48.44987488 16.72769165 C52.45219672 27.86783748 56.10156481 39.13554495 59.8125 50.375 C61.33763474 54.9877134 62.86518762 59.59961793 64.39453125 64.2109375 C64.95553024 65.90558136 64.95553024 65.90558136 65.52786255 67.63446045 C68.6700849 77.09186672 71.93086977 86.50641327 75.26728821 95.89706421 C75.80533333 97.42842514 75.80533333 97.42842514 76.35424805 98.99072266 C76.67282272 99.88844391 76.9913974 100.78616516 77.31962585 101.71109009 C78 104 78 104 78 107 C78.66 107 79.32 107 80 107 C80.37801758 105.14387085 80.37801758 105.14387085 80.76367188 103.25024414 C82.0718899 97.37849314 83.91524756 91.7105843 85.78125 85.99609375 C86.15119583 84.85116959 86.52114166 83.70624542 86.90229797 82.52662659 C88.09771109 78.8290014 89.29862506 75.13319203 90.5 71.4375 C92.14153649 66.37441243 93.78049217 61.31049609 95.41796875 56.24609375 C95.81876144 55.0073349 96.21955414 53.76857605 96.63249207 52.49227905 C98.88865451 45.50166918 101.10260249 38.5010014 103.23828125 31.47265625 C103.46760345 30.72116806 103.69692566 29.96967987 103.93319702 29.19541931 C104.94312056 25.88100844 105.94061956 22.5642294 106.91796875 19.23999023 C111.34276683 4.64418661 111.34276683 4.64418661 116.65258789 0.80517578 C120.09005708 -0.37389581 123.4578888 -0.24504497 127.046875 -0.1953125 C128.20367767 -0.19106766 128.20367767 -0.19106766 129.3838501 -0.18673706 C131.83939332 -0.17557013 134.2945676 -0.15047229 136.75 -0.125 C138.41796347 -0.11496568 140.08593268 -0.10584061 141.75390625 -0.09765625 C145.83607897 -0.07564225 149.917977 -0.04113667 154 0 C155.13427734 3.69775391 155.13427734 3.69775391 153.92578125 6.41796875 C153.12720703 7.78888672 153.12720703 7.78888672 152.3125 9.1875 C141.42314442 30.2335167 142.83431742 56.09055027 142.75 79.1875 C142.74464233 80.01171448 142.73928467 80.83592896 142.73376465 81.68511963 C142.17434292 101.02952722 142.17434292 101.02952722 148 119 C149.65893182 120.34294481 151.32476605 121.67744688 153 123 C153.875 125.1875 153.875 125.1875 154 127 C153 128 153 128 151.01951599 128.12025452 C150.15125687 128.11803391 149.28299774 128.11581329 148.38842773 128.11352539 C147.40748642 128.11344986 146.4265451 128.11337433 145.4158783 128.11329651 C144.3492244 128.10813522 143.2825705 128.10297394 142.18359375 128.09765625 C140.55430687 128.09553383 140.55430687 128.09553383 138.8921051 128.09336853 C135.40720925 128.08775048 131.92237658 128.07519492 128.4375 128.0625 C126.08138113 128.05748733 123.72526126 128.05292402 121.36914062 128.04882812 C115.57940536 128.03777519 109.78970719 128.02101951 104 128 C104 126.35 104 124.7 104 123 C104.78375 122.773125 105.5675 122.54625 106.375 122.3125 C109.1376793 121.24436028 109.1376793 121.24436028 110.1875 118.8125 C110.5896875 117.4203125 110.5896875 117.4203125 111 116 C111.350625 114.9275 111.70125 113.855 112.0625 112.75 C114.47884313 103.08462747 114.13172254 93.25802098 114.09765625 83.37109375 C114.09578803 81.76969955 114.09436603 80.16830477 114.09336853 78.56690979 C114.08957519 74.37977482 114.07977257 70.1926753 114.06866455 66.0055542 C114.05838152 61.72180663 114.05385623 57.43805326 114.04882812 53.15429688 C114.03814703 44.7695151 114.02110946 36.38476198 114 28 C113.73183975 28.8295369 113.4636795 29.65907379 113.18739319 30.51374817 C110.61608814 38.46716709 108.04357736 46.42019489 105.4698267 54.37282276 C104.14779533 58.45789993 102.82617494 62.54310895 101.50561523 66.62866211 C100.99269578 68.2153385 100.4797564 69.80200844 99.96679688 71.38867188 C99.71360876 72.17184217 99.46042065 72.95501247 99.19956017 73.76191521 C97.19021505 79.97389879 95.1688516 86.18192862 93.14441872 92.38900948 C91.74716863 96.68008514 90.36925936 100.97665227 89.0109148 105.2801981 C88.39647743 107.22174296 87.77568666 109.16111936 87.15220642 111.09977722 C86.40216699 113.43495019 85.66332255 115.77375992 84.9377594 118.11665344 C84.6069487 119.13607529 84.276138 120.15549713 83.93530273 121.20581055 C83.65597397 122.08980026 83.3766452 122.97378998 83.08885193 123.88456726 C81.76083584 126.46465059 80.69508033 127.03767478 78 128 C75.95703125 128.25878906 75.95703125 128.25878906 73.8125 128.265625 C73.03132813 128.26820313 72.25015625 128.27078125 71.4453125 128.2734375 C70.63835937 128.26570313 69.83140625 128.25796875 69 128.25 C68.19304687 128.25773437 67.38609375 128.26546875 66.5546875 128.2734375 C65.38292969 128.26957031 65.38292969 128.26957031 64.1875 128.265625 C63.47980469 128.26336914 62.77210937 128.26111328 62.04296875 128.25878906 C59.57711755 127.94643219 58.10669279 127.32783203 56 126 C54.93656921 124.07472229 54.93656921 124.07472229 54.1315918 121.68188477 C53.81941711 120.77826202 53.50724243 119.87463928 53.18560791 118.94363403 C52.86009949 117.95289886 52.53459106 116.9621637 52.19921875 115.94140625 C51.84559265 114.90539276 51.49196655 113.86937927 51.12762451 112.80197144 C49.96732743 109.39325495 48.82757211 105.97802822 47.6875 102.5625 C46.89162852 100.21374043 46.09417071 97.86551782 45.29516602 95.51782227 C43.66056483 90.71200234 42.03239257 85.90407447 40.40820312 81.09472656 C37.14558149 71.45611691 33.78767658 61.85111933 30.42227173 52.24801636 C29.14682447 48.60791858 27.87466303 44.96667793 26.60308838 41.32522583 C26.04927862 39.73930891 25.49514285 38.15350578 24.94061279 36.56784058 C23.94419596 33.71691473 22.95503586 30.86510759 22 28 C21.95322825 35.93783338 21.91790687 43.87560719 21.89637566 51.81354523 C21.88603091 55.50123535 21.87204683 59.18882977 21.84912109 62.87646484 C21.82705431 66.44915172 21.81536186 70.0217478 21.81024551 73.59449768 C21.8048652 75.59033204 21.78930978 77.58613093 21.77340698 79.58190918 C21.77184281 92.62961327 22.19062213 107.06508764 28 119 C30.51062851 121.47998744 30.51062851 121.47998744 33 123 C33.875 125.1875 33.875 125.1875 34 127 C33 128 33 128 29.85717773 128.11352539 C28.46597303 128.11336633 27.07476239 128.10767506 25.68359375 128.09765625 C24.95253922 128.0962413 24.22148468 128.09482635 23.46827698 128.09336853 C21.12464368 128.08775408 18.78110461 128.07519922 16.4375 128.0625 C14.85221492 128.05748686 13.26692834 128.05292363 11.68164062 128.04882812 C7.7877239 128.03777997 3.89387795 128.02050572 0 128 C-0.33 127.01 -0.66 126.02 -1 125 C0.109375 123.421875 0.109375 123.421875 1.75 121.75 C7.19889202 116.19530425 8.5494775 109.49144521 9.625 102.0625 C9.74979736 101.22332031 9.87459473 100.38414063 10.00317383 99.51953125 C13.63952651 74.03851975 18.55889538 32.11971322 3.2109375 9.609375 C2.22060702 8.29319384 1.17947666 7.01537199 0.125 5.75 C-1 4 -1 4 -0.5703125 1.890625 C-0.38210938 1.26671875 -0.19390625 0.6428125 0 0 Z " fill="#00B7E0" transform="translate(1303,947)"/>
<path d="M0 0 C5.48437747 3.73791145 8.59720177 8.61968491 10.7109375 14.84765625 C11.85532476 23.51040169 10.27761054 31.1913842 4.93359375 38.16796875 C2.59765751 40.80405323 0.16811072 43.32407294 -2.2890625 45.84765625 C-3.96967505 47.63721174 -5.64069378 49.43544113 -7.31152344 51.23413086 C-9.1161076 53.17580631 -10.92654337 55.11187476 -12.73828125 57.046875 C-15.97703062 60.5097714 -19.20001493 63.98683455 -22.4140625 67.47265625 C-22.90253662 68.00238037 -23.39101074 68.53210449 -23.89428711 69.07788086 C-25.3595498 70.66749536 -26.82439076 72.25749724 -28.2890625 73.84765625 C-34.62135739 80.72247708 -40.96829603 87.582595 -47.3515625 94.41015625 C-52.4564039 99.87108468 -57.52710895 105.36104825 -62.5703125 110.87890625 C-64.48072707 112.96807306 -66.39810709 115.05058264 -68.3203125 117.12890625 C-68.83102295 117.68118896 -69.3417334 118.23347168 -69.86791992 118.80249023 C-70.89050877 119.90710579 -71.91409361 121.01080022 -72.9387207 122.11352539 C-76.06518034 125.48711984 -79.09233157 128.93089265 -82.1015625 132.41015625 C-87.27601193 138.18454185 -92.40666742 141.45370638 -100.2421875 142.0859375 C-108.50979506 142.27205663 -114.02672786 141.73972748 -120.22265625 136.08203125 C-125.74559715 130.2490708 -128.38483564 124.76563073 -128.6015625 116.72265625 C-128.26094013 107.03713329 -123.40043646 100.75886133 -116.9140625 93.91015625 C-116.39658447 93.35658447 -115.87910645 92.8030127 -115.34594727 92.23266602 C-114.23813132 91.04827825 -113.12846087 89.8656228 -112.01708984 88.68457031 C-109.07774122 85.56000701 -106.1534463 82.4213902 -103.2265625 79.28515625 C-102.63584961 78.65311279 -102.04513672 78.02106934 -101.43652344 77.36987305 C-96.92401553 72.5390477 -92.44956597 67.67498048 -87.98828125 62.796875 C-80.77809131 54.91888165 -73.5196199 47.08645448 -66.2265625 39.28515625 C-62.018191 34.78319078 -57.82392594 30.26950134 -53.6640625 25.72265625 C-52.79007812 24.76746094 -51.91609375 23.81226563 -51.015625 22.828125 C-50.57508789 22.34649902 -50.13455078 21.86487305 -49.68066406 21.36865234 C-46.13269775 17.49078741 -42.58326021 13.61485254 -39 9.76953125 C-37.42251177 8.06929898 -35.85799724 6.35648228 -34.328125 4.61328125 C-24.67793101 -5.98834032 -12.12766505 -6.59383331 0 0 Z " fill="#FEFEFE" transform="translate(438.2890625,1040.15234375)"/>
<path d="M0 0 C0.66 1.65 1.32 3.3 2 5 C2.74983154 5.03963867 3.49966309 5.07927734 4.2722168 5.12011719 C40.95859597 7.1612252 40.95859597 7.1612252 52.7421875 18.70703125 C61.38701812 28.92169429 61.93094174 42.16376875 61.18017578 54.91064453 C60.41733128 63.75674647 56.64109726 71.89509011 49.9375 77.82421875 C47.99872196 79.29612193 46.04008357 80.6732932 44 82 C43.01 82.66 42.02 83.32 41 84 C47.13344397 94.23634173 53.29965843 104.4249582 60.4375 114 C60.90833008 114.63873047 61.37916016 115.27746094 61.86425781 115.93554688 C66.35144813 121.82756073 71.17016915 125.91031461 78 129 C77.67 130.65 77.34 132.3 77 134 C57.53 134 38.06 134 18 134 C19 129 19 129 21.625 127.1875 C22.40875 126.465625 23.1925 125.74375 24 125 C23.84501782 118.11879141 21.40221117 112.53046488 18.625 106.3125 C18.22539063 105.38888672 17.82578125 104.46527344 17.4140625 103.51367188 C15.50512222 99.15262246 13.48604282 95.06588293 11 91 C11 90.34 11 89.68 11 89 C9.5164999 89.42257276 8.03823576 89.86356322 6.5625 90.3125 C5.73878906 90.55613281 4.91507813 90.79976562 4.06640625 91.05078125 C3.38449219 91.36402344 2.70257812 91.67726563 2 92 C-0.87835079 100.63505237 0.90392113 114.05882792 4.41015625 122.32421875 C6.2044903 125.34416672 8.26686442 126.84226138 11 129 C11.875 131.1875 11.875 131.1875 12 133 C11 134 11 134 9.01951599 134.12025452 C8.15125687 134.11803391 7.28299774 134.11581329 6.38842773 134.11352539 C5.40748642 134.11344986 4.4265451 134.11337433 3.4158783 134.11329651 C2.3492244 134.10813522 1.2825705 134.10297394 0.18359375 134.09765625 C-1.44569313 134.09553383 -1.44569313 134.09553383 -3.1078949 134.09336853 C-6.59279075 134.08775048 -10.07762342 134.07519492 -13.5625 134.0625 C-15.91861887 134.05748733 -18.27473874 134.05292402 -20.63085938 134.04882812 C-26.42059464 134.03777519 -32.21029281 134.02101951 -38 134 C-38 132.35 -38 130.7 -38 129 C-37.21625 128.773125 -36.4325 128.54625 -35.625 128.3125 C-32.8623207 127.24436028 -32.8623207 127.24436028 -31.8125 124.8125 C-31.544375 123.884375 -31.27625 122.95625 -31 122 C-30.649375 120.9275 -30.29875 119.855 -29.9375 118.75 C-27.86735181 110.46940723 -27.84060189 102.15792909 -27.83203125 93.66015625 C-27.82870285 92.49802109 -27.82537445 91.33588593 -27.82194519 90.13853455 C-27.81690496 87.69205112 -27.81453596 85.24556088 -27.81469727 82.79907227 C-27.81250883 79.0775207 -27.79431642 75.35626495 -27.77539062 71.63476562 C-27.7724564 69.24739684 -27.7704718 66.86002666 -27.76953125 64.47265625 C-27.76234573 63.37131851 -27.75516022 62.26998077 -27.74775696 61.13526917 C-27.77659652 51.28049317 -28.34236944 41.77873415 -35 34 C-37.24944973 32.08190075 -39.48434089 30.57845278 -42 29 C-41.9296875 27.17578125 -41.9296875 27.17578125 -41 25 C-38.6841111 23.87228909 -36.54614143 23.01148094 -34.125 22.1875 C-23.14433773 18.08129142 -14.93103812 12.50149469 -6.9699707 3.91162109 C-3.2982308 0 -3.2982308 0 0 0 Z M1 13 C-0.35139502 15.70279004 -0.14208777 17.82886913 -0.16113281 20.85498047 C-0.17074036 22.08320526 -0.1803479 23.31143005 -0.19024658 24.57687378 C-0.19509438 25.92364314 -0.19937326 27.27041464 -0.203125 28.6171875 C-0.20887674 29.99480186 -0.21463447 31.3724162 -0.22039795 32.75003052 C-0.2309076 35.64016086 -0.23675044 38.53026339 -0.24023438 41.42041016 C-0.24571803 45.12167135 -0.26974295 48.82256447 -0.29820633 52.52371025 C-0.31684147 55.37017893 -0.32203877 58.21655912 -0.32357025 61.06308365 C-0.32659554 62.42743059 -0.33461998 63.79177602 -0.34775543 65.15606308 C-0.36483157 67.06604474 -0.36108859 68.97617812 -0.35644531 70.88623047 C-0.36009094 71.97273895 -0.36373657 73.05924744 -0.36749268 74.17868042 C0.04194917 77.3220527 0.8877115 78.68735338 3 81 C11.55861638 80.38867026 17.25289295 78.16085665 23.25 71.875 C30.43192233 63.2256515 32.61343626 53.56200397 31.81640625 42.4375 C30.31076931 32.75175307 25.86712089 23.42182298 18.07421875 17.3359375 C12.49280915 13.74113132 7.58264368 12.58858477 1 13 Z " fill="#FF8C09" transform="translate(1809,941)"/>
<path d="M0 0 C5.03759521 4.7164736 8.15686099 9.4573846 8.72265625 16.578125 C8.61165185 23.2383893 6.82465622 28.42202845 2.6875 33.6875 C2.275 34.285625 1.8625 34.88375 1.4375 35.5 C-1.54088778 37.52104885 -4.80606272 37.77705537 -8.3125 37.6875 C-12.73449828 36.14494246 -14.83027632 33.09179502 -17.125 29.18359375 C-19.47757768 24.23853738 -20.79739699 18.93492994 -22.3125 13.6875 C-24.5061374 6.41043 -24.5061374 6.41043 -28.4375 0 C-32.8469493 -2.01300946 -36.5591939 -2.20805043 -41.3125 -1.3125 C-47.54376465 1.16194422 -52.28881587 4.65740088 -55.47265625 10.6171875 C-57.44592707 15.48152952 -57.84118695 19.79654105 -56.25 24.875 C-53.01816339 32.19668295 -46.91419817 34.56711018 -39.859375 37.375 C-36.57345662 38.59093455 -33.27285053 39.73872916 -29.95727539 40.86987305 C-22.29741181 43.49037499 -15.2142522 46.36922466 -8.3125 50.6875 C-7.384375 51.265 -6.45625 51.8425 -5.5 52.4375 C2.43129059 60.59539889 4.69964331 69.53340232 5 80.5625 C4.8098981 90.95100996 2.56535209 99.70232932 -4.3125 107.6875 C-15.77832586 118.73414513 -31.25742102 120.04472707 -46.39282227 119.98999023 C-58.29368689 119.76167883 -70.29746652 118.21687731 -79.34375 109.796875 C-84.99317543 103.73068868 -86.76090602 98.4610939 -86.5625 90.21484375 C-85.90173741 83.53494694 -83.52470261 79.00981436 -78.3125 74.6875 C-75.64191848 72.72907355 -74.31496274 72.68754561 -70.9375 72.625 C-65.98657932 74.07613192 -63.95493792 76.33479613 -61.3125 80.6875 C-59.69712276 84.27284948 -58.48406345 87.93652794 -57.3125 91.6875 C-54.52357781 102.61693994 -54.52357781 102.61693994 -47.453125 110.8359375 C-43.64106509 112.35241389 -40.19924281 111.78064641 -36.3125 110.6875 C-28.75134341 106.54236594 -22.83884479 99.96829682 -20.3125 91.6875 C-19.93933179 86.80159995 -20.7237128 82.88921627 -23.6875 78.9375 C-31.28837959 71.34715119 -43.45372376 68.86299638 -53.43945312 65.81445312 C-65.26458759 62.04533428 -75.64086411 56.46205088 -81.66015625 45.15625 C-86.31765242 33.80464643 -86.55059161 20.99701338 -82.53125 9.44140625 C-80.24348867 4.22491598 -76.95378598 0.91329005 -72.3125 -2.3125 C-71.77367187 -2.69277344 -71.23484375 -3.07304688 -70.6796875 -3.46484375 C-52.66438958 -14.16900058 -16.10423671 -13.17887995 0 0 Z " fill="#FF8C09" transform="translate(1617.3125,956.3125)"/>
<path d="M0 0 C15.18 0 30.36 0 46 0 C48.40334435 8.41170524 50.73469365 16.71168858 52.69921875 25.21484375 C53.18614616 27.28933297 53.67354986 29.36371044 54.16137695 31.43798828 C54.4103775 32.50019592 54.65937805 33.56240356 54.91592407 34.65679932 C62.6067251 81.03521485 62.6067251 81.03521485 85.23828125 119.77734375 C85.92277344 120.16019531 86.60726563 120.54304688 87.3125 120.9375 C88.00988281 121.33839844 88.70726562 121.73929688 89.42578125 122.15234375 C89.94527344 122.43207031 90.46476562 122.71179687 91 123 C90.67 124.65 90.34 126.3 90 128 C71.52 128 53.04 128 34 128 C35 123 35 123 37.4375 120.8125 C41.10050989 116.79212329 41.8702568 113.39458568 42 108 C41.46040011 103.88605799 40.71731593 99.88063789 39.82421875 95.83203125 C39.04894491 92.22755903 38.50215215 88.6506489 38 85 C33.62155592 85.11814126 29.24334071 85.24238169 24.86523438 85.37231445 C23.37537359 85.41566589 21.88546305 85.45734084 20.39550781 85.49731445 C18.25570673 85.55501215 16.11615615 85.61870755 13.9765625 85.68359375 C12.68830566 85.72025146 11.40004883 85.75690918 10.07275391 85.79467773 C7.0872318 85.79530675 7.0872318 85.79530675 5 87 C3.83391876 89.8608413 3.14867252 92.88713027 2.375 95.875 C2.15062256 96.73746338 1.92624512 97.59992676 1.69506836 98.48852539 C-0.90512697 108.86531841 -0.90512697 108.86531841 0.89453125 119.17578125 C2.24835937 121.40983684 3.84330971 122.56220647 6 124 C5.505 125.98 5.505 125.98 5 128 C-6.55 128 -18.1 128 -30 128 C-29 123 -29 123 -27.3984375 121.734375 C-26.39683594 121.24710938 -26.39683594 121.24710938 -25.375 120.75 C-8.52897837 110.93066119 -3.73947008 84.28210238 1 67 C2.8803811 59.71067764 4.49572867 52.37495165 6 45 C6.24621094 43.8553125 6.49242187 42.710625 6.74609375 41.53125 C8.60682921 31.98375217 10.51783386 19.19533059 5.2265625 10.53515625 C3.82493791 8.71677646 3.82493791 8.71677646 1.1875 6.25 C0.465625 5.5075 -0.25625 4.765 -1 4 C-0.67 2.68 -0.34 1.36 0 0 Z M21 20 C19.17181796 27.13585135 17.34620176 34.27235387 15.52388 41.40970421 C14.67766892 44.72365727 13.83056773 48.03737753 12.98144531 51.35058594 C12.00582725 55.15753132 11.03405715 58.96545363 10.0625 62.7734375 C9.75626709 63.96617279 9.45003418 65.15890808 9.13452148 66.38778687 C8.85423096 67.48877716 8.57394043 68.58976746 8.28515625 69.72412109 C8.03644775 70.69674896 7.78773926 71.66937683 7.53149414 72.67147827 C6.92582314 74.926907 6.92582314 74.926907 7 77 C15.58 77 24.16 77 33 77 C35.18592748 72.62814503 35.15606678 72.12781176 34.03369141 67.68066406 C33.64306015 66.08946747 33.64306015 66.08946747 33.24453735 64.46612549 C32.94985565 63.32746033 32.65517395 62.18879517 32.3515625 61.015625 C32.06018402 59.84489441 31.76880554 58.67416382 31.46859741 57.46795654 C30.53386046 53.72520075 29.57969654 49.98770892 28.625 46.25 C27.98829888 43.71516603 27.35286612 41.18001312 26.71875 38.64453125 C25.16053833 32.42591007 23.58634375 26.21150068 22 20 C21.67 20 21.34 20 21 20 Z " fill="#FF8C09" transform="translate(1663,947)"/>
<path d="M0 0 C36.96 0 73.92 0 112 0 C112 13.53 112 27.06 112 41 C110.35 40.67 108.7 40.34 107 40 C105.8828125 38.3203125 105.8828125 38.3203125 105.125 36.125 C100.80840987 25.30772831 94.03825595 15.21750789 83.3125 9.9375 C79.65135279 8.90132626 77.59312459 8.74658445 74 10 C70.10434506 14.82319183 70.8508038 22.81289568 70.85473633 28.73266602 C70.85137772 29.47197861 70.8480191 30.2112912 70.84455872 30.9730072 C70.83511679 33.39999101 70.8331086 35.82690525 70.83203125 38.25390625 C70.8288125 39.95914233 70.82544797 41.66437813 70.82194519 43.36961365 C70.81596971 46.94115843 70.81410351 50.51267909 70.81469727 54.08422852 C70.81479846 58.62389554 70.80118393 63.16340464 70.78392506 67.7030344 C70.77271114 71.22672716 70.77078096 74.75038296 70.77130699 78.27409172 C70.77013952 79.94555133 70.76578848 81.6170123 70.75797462 83.28845406 C70.28330587 101.80285269 70.28330587 101.80285269 76 119 C76.886875 119.680625 77.77375 120.36125 78.6875 121.0625 C79.450625 121.701875 80.21375 122.34125 81 123 C81 124.65 81 126.3 81 128 C64.83 128 48.66 128 32 128 C31.67 126.68 31.34 125.36 31 124 C31.928125 123.319375 32.85625 122.63875 33.8125 121.9375 C38.4896499 118.04355209 40.09428432 112.87281979 41 107 C41.10305892 104.08606623 41.15712416 101.19570339 41.16113281 98.28173828 C41.16609772 97.41443085 41.17106262 96.54712341 41.17617798 95.65353394 C41.19074921 92.79245197 41.19759262 89.93142543 41.203125 87.0703125 C41.20887988 85.07640584 41.21463757 83.08249918 41.22039795 81.08859253 C41.23089309 76.91078433 41.23674572 72.7329953 41.24023438 68.55517578 C41.24572094 63.20983488 41.26975882 57.86474846 41.29820633 52.51948738 C41.31685524 48.40159368 41.32203948 44.28376107 41.32357025 40.1658287 C41.32659138 38.19551067 41.33460163 36.22519358 41.34775543 34.25491714 C41.36486566 31.49543258 41.36292373 28.73656729 41.35644531 25.97705078 C41.3656601 25.16850647 41.37487488 24.35996216 41.3843689 23.5269165 C41.34608137 18.30423441 40.50004442 14.6189988 38 10 C35.04899137 8.68414041 33.6354932 8.8038349 30.5703125 9.75 C18.88088428 15.72542657 12.25850012 24.77569505 6.8125 36.625 C5 40 5 40 2.94921875 40.7734375 C2.30597656 40.84820313 1.66273437 40.92296875 1 41 C0.67 40.67 0.34 40.34 0 40 C0 26.8 0 13.6 0 0 Z " fill="#00B7E0" transform="translate(1110,947)"/>
<path d="M0 0 C0.00238835 0.56100277 0.00477671 1.12200554 0.00723743 1.70000839 C0.06657107 15.39881412 0.14242209 29.09744452 0.23571491 42.79606247 C0.28034032 49.42083253 0.3196138 56.04554219 0.34643555 62.67041016 C0.37254643 69.07015637 0.41300411 75.4696692 0.46318626 81.86927032 C0.47980235 84.30431453 0.49134922 86.73939905 0.49761391 89.17449188 C0.50731216 92.59932107 0.5354403 96.02356021 0.56762695 99.44824219 C0.56619186 100.44303085 0.56475677 101.43781952 0.5632782 102.4627533 C0.66388453 110.08931901 0.86800357 120.4044946 6.5625 126.125 C7.366875 126.74375 8.17125 127.3625 9 128 C11 130 11 130 11 134 C-5.5 134 -22 134 -39 134 C-37.8796677 128.3983385 -36.83972856 127.83972856 -33 124 C-29.7494933 117.61507613 -28.88377717 111.77354823 -28.83886719 104.6784668 C-28.82925964 103.44666183 -28.8196521 102.21485687 -28.80975342 100.94572449 C-28.80550354 99.62687759 -28.80125366 98.3080307 -28.796875 96.94921875 C-28.79404762 96.27090311 -28.79122025 95.59258747 -28.78830719 94.89371681 C-28.77336729 91.30422203 -28.76410493 87.71476691 -28.75976562 84.12524414 C-28.75428749 80.44028368 -28.73025876 76.75569389 -28.70179367 73.07084942 C-28.6830634 70.21646602 -28.67795622 67.36217012 -28.67642975 64.50773048 C-28.67197736 62.49548165 -28.6533851 60.48327987 -28.63446045 58.47111511 C-28.65463016 50.12887631 -28.91641965 41.54535624 -34.9375 35.125 C-35.45441406 34.56425781 -35.97132812 34.00351562 -36.50390625 33.42578125 C-38.0707304 31.86450989 -38.0707304 31.86450989 -40.375 30.3125 C-41.179375 29.6628125 -41.179375 29.6628125 -42 29 C-42 27.68 -42 26.36 -42 25 C-40.99582031 24.67128906 -39.99164062 24.34257813 -38.95703125 24.00390625 C-25.28941484 19.33265304 -14.84345818 12.5882924 -5.0234375 1.87109375 C-3 0 -3 0 0 0 Z " fill="#00B7E0" transform="translate(1278,941)"/>
<path d="M0 0 C0.763125 0.20625 1.52625 0.4125 2.3125 0.625 C2.3125 3.925 2.3125 7.225 2.3125 10.625 C4.6225 10.625 6.9325 10.625 9.3125 10.625 C10.4375 15.375 10.4375 15.375 9.3125 17.625 C7.0025 17.625 4.6925 17.625 2.3125 17.625 C2.42720137 19.37570517 2.55469028 21.12557536 2.6875 22.875 C2.79191406 24.33679687 2.79191406 24.33679687 2.8984375 25.828125 C3.30275233 28.55915725 3.78650815 30.33601222 5.3125 32.625 C7.86769921 33.43671228 7.86769921 33.43671228 10.3125 33.625 C10.4375 36 10.4375 36 10.3125 38.625 C7.73034328 41.20715672 6.58546873 40.92294465 3 40.9375 C-1.91018368 40.86027562 -5.12151653 40.19098347 -8.6875 36.625 C-9.26371094 37.60146484 -9.26371094 37.60146484 -9.8515625 38.59765625 C-11.6875 40.625 -11.6875 40.625 -14.2109375 41.12109375 C-24.1690262 40.91647549 -24.1690262 40.91647549 -27.6875 37.625 C-29.73083554 33.56037931 -30.02826345 29.88521575 -30.25 25.375 C-30.08782032 21.18000275 -30.08782032 21.18000275 -31.6875 17.625 C-32.19996585 14.55020493 -32.15776365 12.44964091 -30.59375 9.70703125 C-27.84802981 6.1653443 -26.3170798 4.79013568 -21.875 3.625 C-20.823125 3.625 -19.77125 3.625 -18.6875 3.625 C-17.6875 4.625 -17.6875 4.625 -17.625 7.6875 C-17.645625 8.656875 -17.66625 9.62625 -17.6875 10.625 C-12.91668844 9.85320125 -12.91668844 9.85320125 -9.21484375 7.00390625 C-8.38612657 5.78490636 -7.58807513 4.54426571 -6.828125 3.28125 C-4.86567892 0.43167076 -3.42670717 -0.47814519 0 0 Z M-17.6875 17.625 C-18.09899019 25.37939616 -18.09899019 25.37939616 -15.6875 32.625 C-15.3575 32.955 -15.0275 33.285 -14.6875 33.625 C-13.0375 33.625 -11.3875 33.625 -9.6875 33.625 C-9.6875 28.345 -9.6875 23.065 -9.6875 17.625 C-12.3275 17.625 -14.9675 17.625 -17.6875 17.625 Z " fill="#675AA6" transform="translate(1243.6875,1105.375)"/>
<path d="M0 0 C3.09378937 0.10312631 5.74014554 0.52302911 8.75 1.125 C9.41 0.795 10.07 0.465 10.75 0.125 C16.2639174 -0.24259449 20.12032495 -0.2420364 24.75 3.125 C27.89081324 7.3680241 29.43892528 11.822065 29.13671875 17.10546875 C28.21532892 21.91717121 26.18436092 25.77501325 22.625 29.125 C18.35123653 30.61152642 14.22958163 30.35985185 9.75 30.125 C10.08 31.15625 10.41 32.1875 10.75 33.25 C11.71433957 36.61492955 12.00115367 39.60884861 11.75 43.125 C9.81658053 45.05841947 6.37520879 44.29949133 3.8125 44.3125 C2.54535156 44.32667969 1.27820312 44.34085938 -0.02734375 44.35546875 C-3.25 44.125 -3.25 44.125 -5.25 42.125 C-5.63286803 38.39203674 -5.39915785 37.34873677 -3.25 34.125 C-2.94129099 31.46171807 -2.94129099 31.46171807 -2.984375 28.46875 C-2.98179688 27.36402344 -2.97921875 26.25929688 -2.9765625 25.12109375 C-2.98429687 23.96738281 -2.99203125 22.81367187 -3 21.625 C-2.99226563 20.47128906 -2.98453125 19.31757812 -2.9765625 18.12890625 C-2.98042969 16.47181641 -2.98042969 16.47181641 -2.984375 14.78125 C-2.98663086 13.76869141 -2.98888672 12.75613281 -2.99121094 11.71289062 C-3.06935044 8.88772284 -3.06935044 8.88772284 -5.25 6.125 C-4.54162833 0.17467801 -4.54162833 0.17467801 0 0 Z M10.75 7.125 C9.38467451 8.26201597 9.38467451 8.26201597 9.65234375 11.28515625 C9.66394531 12.57292969 9.67554688 13.86070313 9.6875 15.1875 C9.69652344 16.47785156 9.70554687 17.76820312 9.71484375 19.09765625 C9.72644531 20.09667969 9.73804688 21.09570312 9.75 22.125 C11.07 22.455 12.39 22.785 13.75 23.125 C15.99234009 19.76148987 16.02098215 18.50189944 16 14.5625 C16.00515625 13.59183594 16.0103125 12.62117188 16.015625 11.62109375 C15.99594496 8.95207063 15.99594496 8.95207063 13.75 7.125 C12.76 7.125 11.77 7.125 10.75 7.125 Z " fill="#675AA6" transform="translate(1554.25,1115.875)"/>
<path d="M0 0 C1.66666667 0.33333333 3.33333333 0.66666667 5 1 C5.66 0.67 6.32 0.34 7 0 C11.70777 -0.39231417 14.07079697 -0.47336758 18.3125 1.6875 C21.84978936 4.7312141 23.76249494 7.24898231 24.3984375 11.9375 C24.39070313 12.948125 24.38296875 13.95875 24.375 15 C24.38660156 16.5159375 24.38660156 16.5159375 24.3984375 18.0625 C23.78039339 22.61906049 21.51543962 26.07046698 18 29 C14.98509443 30.00496852 12.95818308 30.10335303 9.8125 30.0625 C8.91144531 30.05347656 8.01039062 30.04445313 7.08203125 30.03515625 C6.39496094 30.02355469 5.70789062 30.01195312 5 30 C5.309375 30.86625 5.61875 31.7325 5.9375 32.625 C6.93500263 35.79353776 7.69928823 38.69217054 8 42 C6 44 6 44 2.7421875 44.1953125 C0.82792969 44.16050781 0.82792969 44.16050781 -1.125 44.125 C-3.04699219 44.09792969 -3.04699219 44.09792969 -5.0078125 44.0703125 C-5.99523438 44.04710937 -6.98265625 44.02390625 -8 44 C-9.125 41.6875 -9.125 41.6875 -10 39 C-9.34 38.01 -8.68 37.02 -8 36 C-7.6904236 33.07626426 -7.6904236 33.07626426 -7.734375 29.7578125 C-7.73179688 28.52675781 -7.72921875 27.29570313 -7.7265625 26.02734375 C-7.73429687 24.73957031 -7.74203125 23.45179687 -7.75 22.125 C-7.74226563 20.84496094 -7.73453125 19.56492187 -7.7265625 18.24609375 C-7.72914062 17.01246094 -7.73171875 15.77882813 -7.734375 14.5078125 C-7.73663086 13.38004395 -7.73888672 12.25227539 -7.74121094 11.09033203 C-7.99985437 8.00173901 -8.68935315 5.78984262 -10 3 C-7.28349249 -0.83506942 -4.41029877 -0.30415854 0 0 Z M6 7 C4.63461062 9.73077876 4.86768174 11.95560367 4.875 15 C4.87242188 16.0725 4.86984375 17.145 4.8671875 18.25 C4.8127659 20.96182052 4.8127659 20.96182052 6 23 C7.32 23 8.64 23 10 23 C11.70754834 20.02534237 12.27317355 17.86139168 12.25 14.4375 C12.25515625 13.67308594 12.2603125 12.90867187 12.265625 12.12109375 C12.1229561 9.70017238 12.1229561 9.70017238 10 7 C8.68 7 7.36 7 6 7 Z " fill="#675AA6" transform="translate(1594,1116)"/>
<path d="M0 0 C0.88945313 0.18304687 1.77890625 0.36609375 2.6953125 0.5546875 C4.875 1.125 4.875 1.125 5.875 2.125 C6.0101823 4.54782417 6.08546394 6.94625563 6.12109375 9.37109375 C6.15402865 10.86263616 6.18724035 12.35417247 6.22070312 13.84570312 C6.2681715 16.20707036 6.31259816 18.56841225 6.35180664 20.92993164 C6.39143872 23.20224997 6.44300177 25.47405574 6.49609375 27.74609375 C6.5045079 28.45446884 6.51292206 29.16284393 6.52159119 29.89268494 C6.51419735 33.95824552 6.51419735 33.95824552 8.875 37.125 C8.5 40.25 8.5 40.25 7.875 43.125 C4.18777073 43.24201204 0.50102458 43.31252045 -3.1875 43.375 C-4.22583984 43.40851563 -5.26417969 43.44203125 -6.33398438 43.4765625 C-12.86213961 43.55945971 -16.84521709 43.07048995 -22.125 39.125 C-25.72152981 34.25228219 -25.97280499 28.97390185 -25.125 23.125 C-22.79576821 18.28736475 -19.94352225 15.48880337 -15.125 13.125 C-12.09113303 12.81714443 -9.16145159 12.88208387 -6.125 13.125 C-6.5890625 11.51625 -6.5890625 11.51625 -7.0625 9.875 C-7.413125 8.6375 -7.76375 7.4 -8.125 6.125 C-8.351875 5.361875 -8.57875 4.59875 -8.8125 3.8125 C-9.125 2.125 -9.125 2.125 -8.125 0.125 C-4.77271164 -0.99242945 -3.39370332 -0.72227505 0 0 Z M-10.125 20.125 C-12.23957354 22.46613499 -13.125 24.20868979 -13.125 27.390625 C-12.67283637 31.90754201 -12.67283637 31.90754201 -11.125 36.125 C-9.805 36.125 -8.485 36.125 -7.125 36.125 C-5.75961062 33.39422124 -5.99268174 31.16939633 -6 28.125 C-5.99613281 26.51625 -5.99613281 26.51625 -5.9921875 24.875 C-5.9377659 22.16317948 -5.9377659 22.16317948 -7.125 20.125 C-8.115 20.125 -9.105 20.125 -10.125 20.125 Z " fill="#675AA6" transform="translate(1345.125,1102.875)"/>
<path d="M0 0 C4.40672743 1.5423546 4.61967578 2.1712501 6.625 6.1875 C7.37859332 7.87391964 8.13002069 9.56146608 8.85644531 11.25976562 C10.26220396 14.48916964 11.77218407 17.66825148 13.27783203 20.85205078 C14.08547402 22.56058628 14.88607227 24.2724712 15.67919922 25.98779297 C16.04803223 26.77814941 16.41686523 27.56850586 16.796875 28.3828125 C17.12526367 29.09195801 17.45365234 29.80110352 17.79199219 30.53173828 C18.7350298 32.48933524 18.7350298 32.48933524 20.75 34.3125 C20.9375 37.375 20.9375 37.375 20.75 40.3125 C18.92883997 42.13366003 16.44328236 41.4448508 14.0234375 41.44921875 C13.27320313 41.44535156 12.52296875 41.44148438 11.75 41.4375 C10.62464844 41.44330078 10.62464844 41.44330078 9.4765625 41.44921875 C3.87661053 41.43911053 3.87661053 41.43911053 2.75 40.3125 C2.70653201 38.31297242 2.710008 36.31210012 2.75 34.3125 C2.75 33.3225 2.75 32.3325 2.75 31.3125 C-1.19551835 29.99732722 -5.4268416 29.4009208 -9.25 31.3125 C-8.899375 32.055 -8.54875 32.7975 -8.1875 33.5625 C-7.20122222 36.45558148 -7.15577764 37.52720671 -8.25 40.3125 C-9.25 41.3125 -9.25 41.3125 -11.9375 41.4453125 C-13.030625 41.44273438 -14.12375 41.44015625 -15.25 41.4375 C-16.343125 41.44007812 -17.43625 41.44265625 -18.5625 41.4453125 C-21.25 41.3125 -21.25 41.3125 -22.25 40.3125 C-22.625 37.625 -22.625 37.625 -22.25 34.3125 C-21.54488281 33.5390625 -20.83976562 32.765625 -20.11328125 31.96875 C-15.739712 26.97160545 -13.61634076 20.55014231 -11.0625 14.5 C-10.01437292 12.03160539 -8.95673202 9.567904 -7.89453125 7.10546875 C-7.43409424 6.0177417 -6.97365723 4.93001465 -6.49926758 3.80932617 C-4.74782729 0.30884155 -3.88724931 0.37377397 0 0 Z M-4.25 16.3125 C-4.91 18.2925 -5.57 20.2725 -6.25 22.3125 C-4.27 22.3125 -2.29 22.3125 -0.25 22.3125 C-1.735 19.3425 -1.735 19.3425 -3.25 16.3125 C-3.58 16.3125 -3.91 16.3125 -4.25 16.3125 Z " fill="#675AA6" transform="translate(1192.25,1104.6875)"/>
<path d="M0 0 C3.52734375 1.03515625 3.52734375 1.03515625 5.4609375 3.8515625 C5.98890832 5.0892204 6.48867687 6.33915899 6.96484375 7.59765625 C7.53482213 8.95826587 8.1078548 10.31759917 8.68359375 11.67578125 C9.12445312 12.7421582 9.12445312 12.7421582 9.57421875 13.83007812 C11.50752922 18.30283944 13.8061957 22.60121178 16.03881836 26.92993164 C18.52734375 31.82615008 18.52734375 31.82615008 18.52734375 34.03515625 C19.18734375 34.03515625 19.84734375 34.03515625 20.52734375 34.03515625 C20.56988731 36.03470371 20.56815158 38.03557261 20.52734375 40.03515625 C18.70618372 41.85631628 16.22062611 41.16750705 13.80078125 41.171875 C13.05054688 41.16800781 12.3003125 41.16414063 11.52734375 41.16015625 C10.40199219 41.16595703 10.40199219 41.16595703 9.25390625 41.171875 C3.65395428 41.16176678 3.65395428 41.16176678 2.52734375 40.03515625 C2.61672178 38.50996349 2.77271521 36.98833696 2.96484375 35.47265625 C3.06667969 34.64636719 3.16851563 33.82007813 3.2734375 32.96875 C3.35722656 32.33066406 3.44101563 31.69257812 3.52734375 31.03515625 C-0.72096033 29.8561115 -5.40737245 29.00251435 -9.47265625 31.03515625 C-9.38886719 31.67324219 -9.30507812 32.31132813 -9.21875 32.96875 C-9.11691406 33.79503906 -9.01507812 34.62132812 -8.91015625 35.47265625 C-8.80574219 36.29636719 -8.70132812 37.12007812 -8.59375 37.96875 C-8.55378906 38.65066406 -8.51382812 39.33257813 -8.47265625 40.03515625 C-9.47265625 41.03515625 -9.47265625 41.03515625 -12.16015625 41.16796875 C-13.25328125 41.16539063 -14.34640625 41.1628125 -15.47265625 41.16015625 C-16.56578125 41.16273437 -17.65890625 41.1653125 -18.78515625 41.16796875 C-21.47265625 41.03515625 -21.47265625 41.03515625 -22.47265625 40.03515625 C-22.78515625 37.28515625 -22.78515625 37.28515625 -22.47265625 34.03515625 C-21.14313909 32.36544379 -19.80924443 30.69921382 -18.47265625 29.03515625 C-17.43440219 26.95982472 -16.46766273 24.84767634 -15.5625 22.7109375 C-15.04751953 21.51791016 -14.53253906 20.32488281 -14.00195312 19.09570312 C-13.20093159 17.21383258 -12.40298043 15.33069185 -11.60620117 13.44702148 C-10.82818269 11.61517401 -10.03924171 9.78797758 -9.25 7.9609375 C-8.78843506 6.87208252 -8.32687012 5.78322754 -7.85131836 4.66137695 C-5.82274369 0.7971344 -4.34462442 0.04398382 0 0 Z M-4.47265625 16.03515625 C-5.13265625 18.01515625 -5.79265625 19.99515625 -6.47265625 22.03515625 C-4.49265625 22.03515625 -2.51265625 22.03515625 -0.47265625 22.03515625 C-1.95765625 19.06515625 -1.95765625 19.06515625 -3.47265625 16.03515625 C-3.80265625 16.03515625 -4.13265625 16.03515625 -4.47265625 16.03515625 Z " fill="#675AA6" transform="translate(1528.47265625,1104.96484375)"/>
<path d="M0 0 C3.75 0.25 3.75 0.25 6.9375 1.375 C9.63442969 2.56004356 9.63442969 2.56004356 11.625 1.375 C12.32625 1.00375 13.0275 0.6325 13.75 0.25 C19.11921733 -0.17612836 22.36696956 -0.20329671 26.75 3.25 C28.56456255 6.8791251 28.12172391 11.37304236 28.26757812 15.39648438 C28.45004029 19.15245082 28.61964154 21.05446232 30.75 24.25 C30.42 26.23 30.09 28.21 29.75 30.25 C24.8 30.25 19.85 30.25 14.75 30.25 C14.09 28.6 13.43 26.95 12.75 25.25 C13.41 24.26 14.07 23.27 14.75 22.25 C14.99187651 19.50481679 14.99187651 19.50481679 14.875 16.5625 C14.84792969 15.07169922 14.84792969 15.07169922 14.8203125 13.55078125 C14.79710937 12.79152344 14.77390625 12.03226563 14.75 11.25 C13.43 11.25 12.11 11.25 10.75 11.25 C9.24065783 14.26868434 9.57489328 16.92297229 9.75 20.25 C10.41 21.24 11.07 22.23 11.75 23.25 C11.9375 26.375 11.9375 26.375 11.75 29.25 C9.99440058 31.00559942 7.71417558 30.38221919 5.37890625 30.38671875 C4.67636719 30.38285156 3.97382812 30.37898438 3.25 30.375 C2.54746094 30.37886719 1.84492187 30.38273437 1.12109375 30.38671875 C-4.12338622 30.37661378 -4.12338622 30.37661378 -5.25 29.25 C-5.375 26.25 -5.375 26.25 -5.25 23.25 C-4.92 22.92 -4.59 22.59 -4.25 22.25 C-4.15090698 19.91839945 -4.12029496 17.58370058 -4.125 15.25 C-4.12242188 13.97125 -4.11984375 12.6925 -4.1171875 11.375 C-3.89139107 8.38312756 -3.89139107 8.38312756 -5.25 7.25 C-5.4375 4.8125 -5.4375 4.8125 -5.25 2.25 C-3.25 0.25 -3.25 0.25 0 0 Z " fill="#675AA6" transform="translate(1797.25,1115.75)"/>
<path d="M0 0 C3.75 0.25 3.75 0.25 6.9375 1.375 C9.63442969 2.56004356 9.63442969 2.56004356 11.625 1.375 C12.32625 1.00375 13.0275 0.6325 13.75 0.25 C19.11921733 -0.17612836 22.36696956 -0.20329671 26.75 3.25 C28.56456255 6.8791251 28.12172391 11.37304236 28.26757812 15.39648438 C28.45004029 19.15245082 28.61964154 21.05446232 30.75 24.25 C30.42 26.23 30.09 28.21 29.75 30.25 C24.8 30.25 19.85 30.25 14.75 30.25 C14.09 28.6 13.43 26.95 12.75 25.25 C13.41 24.26 14.07 23.27 14.75 22.25 C14.99187651 19.50481679 14.99187651 19.50481679 14.875 16.5625 C14.84792969 15.07169922 14.84792969 15.07169922 14.8203125 13.55078125 C14.79710937 12.79152344 14.77390625 12.03226563 14.75 11.25 C13.43 11.25 12.11 11.25 10.75 11.25 C9.24065783 14.26868434 9.57489328 16.92297229 9.75 20.25 C10.41 21.24 11.07 22.23 11.75 23.25 C11.9375 26.375 11.9375 26.375 11.75 29.25 C9.99440058 31.00559942 7.71417558 30.38221919 5.37890625 30.38671875 C4.67636719 30.38285156 3.97382812 30.37898438 3.25 30.375 C2.54746094 30.37886719 1.84492187 30.38273437 1.12109375 30.38671875 C-4.12338622 30.37661378 -4.12338622 30.37661378 -5.25 29.25 C-5.375 26.25 -5.375 26.25 -5.25 23.25 C-4.92 22.92 -4.59 22.59 -4.25 22.25 C-4.15090698 19.91839945 -4.12029496 17.58370058 -4.125 15.25 C-4.12242188 13.97125 -4.11984375 12.6925 -4.1171875 11.375 C-3.89139107 8.38312756 -3.89139107 8.38312756 -5.25 7.25 C-5.4375 4.8125 -5.4375 4.8125 -5.25 2.25 C-3.25 0.25 -3.25 0.25 0 0 Z " fill="#675AA6" transform="translate(1288.25,1115.75)"/>
<path d="M0 0 C1.5778125 0.556875 1.5778125 0.556875 3.1875 1.125 C5.88442969 2.31004356 5.88442969 2.31004356 7.875 1.125 C8.57625 0.75375 9.2775 0.3825 10 0 C14.21808605 -0.47256566 18.50494888 -0.68850086 22 2 C24.88717333 6.24646296 24.41613017 11.30712956 24.56640625 16.24414062 C24.72624568 19.98646804 24.87425664 21.81138495 27 25 C26.48275862 28.51724138 26.48275862 28.51724138 25 30 C22.46950598 30.07313567 19.96695163 30.09247527 17.4375 30.0625 C16.72658203 30.05798828 16.01566406 30.05347656 15.28320312 30.04882812 C13.52209987 30.03700864 11.76103964 30.01907263 10 30 C9.375 27.1875 9.375 27.1875 9 24 C9.66 23.01 10.32 22.02 11 21 C11.24150773 18.48415109 11.24150773 18.48415109 11.125 15.8125 C11.10695313 14.91144531 11.08890625 14.01039062 11.0703125 13.08203125 C11.04710937 12.39496094 11.02390625 11.70789062 11 11 C8.525 10.505 8.525 10.505 6 10 C5.94589313 11.77049689 5.90715881 13.54146849 5.875 15.3125 C5.84019531 16.79169922 5.84019531 16.79169922 5.8046875 18.30078125 C5.79317361 21.22406527 5.79317361 21.22406527 8 24 C7.67 25.98 7.34 27.96 7 30 C2.05 30 -2.9 30 -8 30 C-8.66 28.35 -9.32 26.7 -10 25 C-9.01 23.515 -9.01 23.515 -8 22 C-7.68085466 18.73834852 -7.68085466 18.73834852 -7.75 15.125 C-7.74484375 13.91070313 -7.7396875 12.69640625 -7.734375 11.4453125 C-7.98646492 8.17555789 -8.59397201 5.93480445 -10 3 C-7.28167418 -0.83763645 -4.41922402 -0.37451051 0 0 Z " fill="#675AA6" transform="translate(1396,1116)"/>
<path d="M0 0 C3.64987947 2.49260061 5.17241427 4.5797428 6.5625 8.75 C6.82980154 11.84306067 7.00701759 14.93568109 7.18359375 18.03515625 C7.304613 20.89383065 7.304613 20.89383065 9.5625 22.75 C9.00694444 27.30555556 9.00694444 27.30555556 7.5625 28.75 C6.1278041 28.84894455 4.68809603 28.87970735 3.25 28.875 C2.08017578 28.87886719 2.08017578 28.87886719 0.88671875 28.8828125 C-1.4375 28.75 -1.4375 28.75 -3.60546875 28.1796875 C-5.51981774 27.52464372 -5.51981774 27.52464372 -7.4375 28.75 C-14.43619622 29.43839635 -14.43619622 29.43839635 -18.4375 26.6875 C-20.95680235 22.98727467 -21.1441341 21.1468344 -20.4375 16.75 C-18.4375 13.8125 -18.4375 13.8125 -16.4375 11.75 C-16.9325 11.37875 -17.4275 11.0075 -17.9375 10.625 C-19.4375 8.75 -19.4375 8.75 -19.8125 5.75 C-19.4375 2.75 -19.4375 2.75 -18.125 0.9375 C-12.96545833 -2.69328858 -5.64689448 -2.05341617 0 0 Z M-9.4375 3.75 C-9.7675 5.73 -10.0975 7.71 -10.4375 9.75 C-9.1175 9.09 -7.7975 8.43 -6.4375 7.75 C-6.7675 6.43 -7.0975 5.11 -7.4375 3.75 C-8.0975 3.75 -8.7575 3.75 -9.4375 3.75 Z M-6.4375 14.75 C-7.0975 16.07 -7.7575 17.39 -8.4375 18.75 C-7.4475 18.75 -6.4575 18.75 -5.4375 18.75 C-5.7675 17.43 -6.0975 16.11 -6.4375 14.75 Z " fill="#675AA6" transform="translate(1705.4375,1117.25)"/>
<path d="M0 0 C3.64987947 2.49260061 5.17241427 4.5797428 6.5625 8.75 C6.82980154 11.84306067 7.00701759 14.93568109 7.18359375 18.03515625 C7.304613 20.89383065 7.304613 20.89383065 9.5625 22.75 C9.00694444 27.30555556 9.00694444 27.30555556 7.5625 28.75 C6.1278041 28.84894455 4.68809603 28.87970735 3.25 28.875 C2.08017578 28.87886719 2.08017578 28.87886719 0.88671875 28.8828125 C-1.4375 28.75 -1.4375 28.75 -3.60546875 28.1796875 C-5.51981774 27.52464372 -5.51981774 27.52464372 -7.4375 28.75 C-14.43619622 29.43839635 -14.43619622 29.43839635 -18.4375 26.6875 C-20.95680235 22.98727467 -21.1441341 21.1468344 -20.4375 16.75 C-18.4375 13.8125 -18.4375 13.8125 -16.4375 11.75 C-16.9325 11.37875 -17.4275 11.0075 -17.9375 10.625 C-19.4375 8.75 -19.4375 8.75 -19.8125 5.75 C-19.4375 2.75 -19.4375 2.75 -18.125 0.9375 C-12.96545833 -2.69328858 -5.64689448 -2.05341617 0 0 Z M-9.4375 3.75 C-9.7675 5.73 -10.0975 7.71 -10.4375 9.75 C-9.1175 9.09 -7.7975 8.43 -6.4375 7.75 C-6.7675 6.43 -7.0975 5.11 -7.4375 3.75 C-8.0975 3.75 -8.7575 3.75 -9.4375 3.75 Z M-6.4375 14.75 C-7.0975 16.07 -7.7575 17.39 -8.4375 18.75 C-7.4475 18.75 -6.4575 18.75 -5.4375 18.75 C-5.7675 17.43 -6.0975 16.11 -6.4375 14.75 Z " fill="#675AA6" transform="translate(1375.4375,1117.25)"/>
<path d="M0 0 C3.5 1.8125 3.5 1.8125 6 4 C6.8971875 4.7734375 6.8971875 4.7734375 7.8125 5.5625 C10.64429991 8.99046831 10.33273393 13.20997338 10.27734375 17.42578125 C9.82846095 21.59217229 8.57879742 23.6747086 6 27 C0.92840482 30.83462074 -4.8920017 30.79785174 -11 30 C-14.73253279 28.74457306 -17.30655717 26.94960877 -19.66015625 23.7265625 C-21.99459746 18.97600867 -21.62329144 14.16841666 -21 9 C-19.26141451 5.18848567 -17.78176637 3.57202417 -14.4375 1.125 C-9.56243706 -0.47047514 -5.07994806 -0.69546908 0 0 Z M-7 7 C-8.70754834 9.97465763 -9.27317355 12.13860832 -9.25 15.5625 C-9.25515625 16.32691406 -9.2603125 17.09132813 -9.265625 17.87890625 C-9.1229561 20.29982762 -9.1229561 20.29982762 -7 23 C-5.01508358 22.73323796 -5.01508358 22.73323796 -3 22 C-1.49086276 17.47258828 -1.22570719 12.93573202 -3 8.5 C-3.33 8.005 -3.66 7.51 -4 7 C-4.99 7 -5.98 7 -7 7 Z " fill="#675AA6" transform="translate(1780,1116)"/>
<path d="M0 0 C4.51315789 2.02631579 4.51315789 2.02631579 6 5 C6.56910569 11.14634146 6.56910569 11.14634146 4.5 14.25 C1.15426198 16.59201662 -2.12592298 17.70864099 -6 19 C-5.67 19.66 -5.34 20.32 -5 21 C-1.7 20.67 1.6 20.34 5 20 C5.33 21.98 5.66 23.96 6 26 C3.70107451 28.53674537 1.84040427 29.86717015 -1.5703125 30.40625 C-7.53910083 30.60141474 -11.39666749 30.14299926 -16 26 C-19.54581036 21.96511235 -20.30360179 18.43338591 -20.21484375 13.05859375 C-19.73807026 8.49023683 -17.77437114 5.69882274 -14.4375 2.6875 C-9.71226238 -0.58381835 -5.64662168 -0.51494349 0 0 Z M-6 7 C-6.66 8.98 -7.32 10.96 -8 13 C-6.68 12.67 -5.36 12.34 -4 12 C-3.67 10.68 -3.34 9.36 -3 8 C-3.99 7.67 -4.98 7.34 -6 7 Z " fill="#675AA6" transform="translate(1471,1116)"/>
<path d="M0 0 C4.51315789 2.02631579 4.51315789 2.02631579 6 5 C6.56910569 11.14634146 6.56910569 11.14634146 4.5 14.25 C1.15426198 16.59201662 -2.12592298 17.70864099 -6 19 C-5.67 19.66 -5.34 20.32 -5 21 C-1.7 20.67 1.6 20.34 5 20 C5.33 21.98 5.66 23.96 6 26 C3.70107451 28.53674537 1.84040427 29.86717015 -1.5703125 30.40625 C-7.53910083 30.60141474 -11.39666749 30.14299926 -16 26 C-19.54581036 21.96511235 -20.30360179 18.43338591 -20.21484375 13.05859375 C-19.73807026 8.49023683 -17.77437114 5.69882274 -14.4375 2.6875 C-9.71226238 -0.58381835 -5.64662168 -0.51494349 0 0 Z M-6 7 C-6.66 8.98 -7.32 10.96 -8 13 C-6.68 12.67 -5.36 12.34 -4 12 C-3.67 10.68 -3.34 9.36 -3 8 C-3.99 7.67 -4.98 7.34 -6 7 Z " fill="#675AA6" transform="translate(1275,1116)"/>
<path d="M0 0 C1.17755859 0.14888672 1.17755859 0.14888672 2.37890625 0.30078125 C4.4375 0.6875 4.4375 0.6875 6.4375 1.6875 C6.45731934 2.64116455 6.47713867 3.5948291 6.49755859 4.57739258 C6.57365014 8.11672299 6.66236161 11.65564417 6.75488281 15.19458008 C6.79315798 16.72607339 6.82801349 18.25765615 6.859375 19.78930664 C6.90505807 21.9913733 6.96304537 24.19282496 7.0234375 26.39453125 C7.03498871 27.07900833 7.04653992 27.76348541 7.05844116 28.46870422 C7.17023744 32.07210837 7.38144553 33.6034183 9.4375 36.6875 C9.625 39.8125 9.625 39.8125 9.4375 42.6875 C7.68190058 44.44309942 5.40167558 43.81971919 3.06640625 43.82421875 C2.36386719 43.82035156 1.66132812 43.81648438 0.9375 43.8125 C0.23496094 43.81636719 -0.46757813 43.82023437 -1.19140625 43.82421875 C-6.43588622 43.81411378 -6.43588622 43.81411378 -7.5625 42.6875 C-7.6875 39.6875 -7.6875 39.6875 -7.5625 36.6875 C-7.0675 36.1925 -7.0675 36.1925 -6.5625 35.6875 C-6.46256468 33.6269469 -6.43169094 31.5629741 -6.4296875 29.5 C-6.42839844 28.24445313 -6.42710938 26.98890625 -6.42578125 25.6953125 C-6.42787598 25.03821289 -6.4299707 24.38111328 -6.43212891 23.70410156 C-6.43747766 21.69588665 -6.43218309 19.68789541 -6.42578125 17.6796875 C-6.42707031 16.42414063 -6.42835937 15.16859375 -6.4296875 13.875 C-6.43081543 12.71355469 -6.43194336 11.55210938 -6.43310547 10.35546875 C-6.25912526 7.76686716 -6.25912526 7.76686716 -7.5625 6.6875 C-7.8125 4.25 -7.8125 4.25 -7.5625 1.6875 C-4.24985796 -0.52092803 -3.72798604 -0.50975756 0 0 Z " fill="#675AA6" transform="translate(1627.5625,1102.3125)"/>
<path d="M0 0 C2.79509392 2.11154795 4.05016849 3.89652261 5.11328125 7.21875 C5.11328125 10.09375 5.11328125 10.09375 3.11328125 13.09375 C0.11328125 13.40625 0.11328125 13.40625 -2.88671875 13.09375 C-4.88671875 11.09375 -4.88671875 11.09375 -5.01171875 8.46875 C-4.97046875 7.685 -4.92921875 6.90125 -4.88671875 6.09375 C-6.93972753 7.77397561 -7.81494964 8.61443491 -8.21484375 11.28515625 C-8.17617187 12.45884766 -8.17617187 12.45884766 -8.13671875 13.65625 C-8.12125 14.44128906 -8.10578125 15.22632813 -8.08984375 16.03515625 C-8.00430734 18.15625961 -8.00430734 18.15625961 -6.88671875 20.09375 C-3.36474665 20.17379482 -0.26690406 20.13380702 3.11328125 19.09375 C3.44328125 21.07375 3.77328125 23.05375 4.11328125 25.09375 C1.81435576 27.63049537 -0.04631448 28.96092015 -3.45703125 29.5 C-9.39830903 29.69426521 -13.35148088 29.28884503 -17.88671875 25.09375 C-21.27781205 21.00105119 -22.18241383 16.32059538 -21.88671875 11.09375 C-20.44175947 6.40980895 -18.28923769 2.50803458 -13.88671875 0.09375 C-9.36051739 -1.41498379 -4.43909024 -2.13223382 0 0 Z " fill="#675AA6" transform="translate(1678.88671875,1116.90625)"/>
<path d="M0 0 C5.46341463 2.92682927 5.46341463 2.92682927 7 6 C7.1875 9 7.1875 9 7 12 C6.34 12.66 5.68 13.32 5 14 C1.375 13.625 1.375 13.625 -2 13 C-2.33 11.02 -2.66 9.04 -3 7 C-3.99 7.495 -3.99 7.495 -5 8 C-6.58423321 12.75269962 -6.32495164 17.21545243 -5 22 C-4.28972656 21.84402344 -3.57945313 21.68804688 -2.84765625 21.52734375 C-1.92855469 21.33269531 -1.00945312 21.13804688 -0.0625 20.9375 C1.31228516 20.64166016 1.31228516 20.64166016 2.71484375 20.33984375 C3.84599609 20.17162109 3.84599609 20.17162109 5 20 C6 21 6 21 6.375 23.875 C6 27 6 27 4.125 28.875 C-0.89691042 30.68288775 -5.99087861 31.04226551 -11.09765625 29.2734375 C-15.06522704 27.20120308 -17.06384017 24.95157767 -19 21 C-19.82534539 15.47539077 -19.7015139 10.53793432 -17.375 5.4375 C-12.35069382 0.28097524 -7.01280762 -1.16462698 0 0 Z " fill="#675AA6" transform="translate(1443,1116)"/>
<path d="M0 0 C1 1 1 1 1.0625 3.5625 C1.041875 4.366875 1.02125 5.17125 1 6 C1.969375 5.979375 2.93875 5.95875 3.9375 5.9375 C7 6 7 6 8 7 C8.125 9.5 8.125 9.5 8 12 C7.67 12.33 7.34 12.66 7 13 C5.02 13 3.04 13 1 13 C1.33 17.62 1.66 22.24 2 27 C3.98 27.66 5.96 28.32 8 29 C8 30.98 8 32.96 8 35 C4.08223614 36.95888193 -0.71873625 36.35831645 -5 36 C-8.11937969 34.62747293 -9.4897715 34.020457 -11 31 C-11.23189127 27.61733208 -11.39476044 24.24148635 -11.51757812 20.85351562 C-11.70004029 17.09754918 -11.86964154 15.19553768 -14 12 C-14.4375 9.6875 -14.4375 9.6875 -14 7 C-9.96388269 1.28216714 -7.0746691 -2.10328 0 0 Z " fill="#675AA6" transform="translate(1730,1110)"/>
<path d="M0 0 C3.23824305 0.48229152 4.75619184 1.09068954 7.203125 3.328125 C7.95590426 6.52549669 7.94831067 9.67938274 7.953125 12.953125 C7.98614152 14.69538112 8.02242083 16.43757954 8.0625 18.1796875 C8.06733398 18.95135254 8.07216797 19.72301758 8.07714844 20.51806641 C8.00565636 22.349425 8.00565636 22.349425 9.203125 23.328125 C9.328125 26.328125 9.328125 26.328125 9.203125 29.328125 C7.44752558 31.08372442 5.16730058 30.46034419 2.83203125 30.46484375 C2.12949219 30.46097656 1.42695312 30.45710938 0.703125 30.453125 C0.00058594 30.45699219 -0.70195313 30.46085937 -1.42578125 30.46484375 C-6.67026122 30.45473878 -6.67026122 30.45473878 -7.796875 29.328125 C-8.09073653 25.60587901 -7.94496671 24.55026257 -5.796875 21.328125 C-5.47899008 18.45755249 -5.47899008 18.45755249 -5.546875 15.328125 C-5.54171875 14.27625 -5.5365625 13.224375 -5.53125 12.140625 C-5.59220483 9.12162121 -5.59220483 9.12162121 -7.796875 6.328125 C-7.07402967 0.25622426 -5.99327643 0.22875101 0 0 Z " fill="#675AA6" transform="translate(1747.796875,1115.671875)"/>
<path d="M0 0 C1.68135552 0.62870171 3.35169985 1.28913516 5 2 C5.01981934 2.55985596 5.03963867 3.11971191 5.06005859 3.6965332 C5.15537783 6.23565854 5.26502753 8.77396888 5.375 11.3125 C5.4059375 12.19357422 5.436875 13.07464844 5.46875 13.98242188 C5.50742188 14.82998047 5.54609375 15.67753906 5.5859375 16.55078125 C5.6173584 17.33106689 5.6487793 18.11135254 5.68115234 18.9152832 C5.89587889 21.30155768 5.89587889 21.30155768 8 24 C7.67 25.98 7.34 27.96 7 30 C2.05 30 -2.9 30 -8 30 C-8.66 28.35 -9.32 26.7 -10 25 C-9.01 23.515 -9.01 23.515 -8 22 C-7.68085466 18.73834852 -7.68085466 18.73834852 -7.75 15.125 C-7.74484375 13.91070313 -7.7396875 12.69640625 -7.734375 11.4453125 C-7.98646492 8.17555789 -8.59397201 5.93480445 -10 3 C-7.2864816 -0.83084951 -4.40966574 -0.3801436 0 0 Z " fill="#675AA6" transform="translate(1648,1116)"/>
<path d="M0 0 C1.19109375 0.00773437 1.19109375 0.00773437 2.40625 0.015625 C3.2003125 0.01046875 3.994375 0.0053125 4.8125 0 C6.90625 0.265625 6.90625 0.265625 8.90625 2.265625 C9.34375 5.203125 9.34375 5.203125 8.90625 8.265625 C6.09900671 10.82517035 4.57805221 11.29249709 0.78125 11.140625 C-3.53946429 9.825625 -3.53946429 9.825625 -5.09375 7.265625 C-4.81712649 3.48510375 -4.21884793 0.53522698 0 0 Z " fill="#675AA6" transform="translate(1745.09375,1103.734375)"/>
<path d="M0 0 C2.0625 1.125 2.0625 1.125 3 3 C2.9375 6.0625 2.9375 6.0625 2 9 C0.375 10.4375 0.375 10.4375 -2 11 C-8.44444444 10.55555556 -8.44444444 10.55555556 -11 8 C-11.3125 5 -11.3125 5 -11 2 C-7.18905096 -0.5406327 -4.46566106 -0.58489947 0 0 Z " fill="#675AA6" transform="translate(1650,1104)"/>
</svg>
